<svg xmlns="http://www.w3.org/2000/svg" viewBox="0 0 1408 276"><defs><style>.cls-1,.cls-7{fill:#fede4a;}.cls-15,.cls-2{fill:#4ccb70;}.cls-19,.cls-3{fill:#fff;}.cls-4{fill:#37b6e5;}.cls-5{fill:#289b7f;}.cls-10,.cls-11,.cls-12,.cls-13,.cls-14,.cls-15,.cls-16,.cls-17,.cls-18,.cls-19,.cls-5,.cls-6,.cls-7,.cls-8,.cls-9{fill-rule:evenodd;}.cls-6{fill:#fec24a;}.cls-8{fill:#eb3c32;}.cls-9{fill:#fc654f;}.cls-10{fill:#c37328;}.cls-11{fill:#fd6b55;}.cls-12{fill:#f0ebdc;}.cls-13{fill:#ff503c;}.cls-14{fill:#37b3e5;}.cls-16,.cls-20{fill:#6e5046;}.cls-17{fill:#37a6e3;}.cls-18{fill:#9952e7;}</style></defs><path class="cls-1" d="M440,247.09a4,4,0,0,1,2.84-4.89,4,4,0,0,1,2.05,0l21.28,5.64a4,4,0,0,1,1.8,6.7l-15.63,15.63a4,4,0,0,1-6.69-1.8Z"/><path class="cls-2" d="M1224.83,203.32a2,2,0,0,1,1.33-2.49,1.91,1.91,0,0,1,1.16,0l9.49,2.89a2,2,0,0,1,1.33,2.49,1.82,1.82,0,0,1-.5.83l-6.6,6.6a2,2,0,0,1-2.83,0h0a2,2,0,0,1-.49-.83Z"/><path class="cls-3" d="M1214,28a6,6,0,1,1,6-6A6,6,0,0,1,1214,28Zm0-10a4,4,0,1,0,4,4A4,4,0,0,0,1214,18Z"/><circle class="cls-3" cx="136.01" cy="126" r="10"/><circle class="cls-3" cx="63.79" cy="91.56" r="4"/><circle class="cls-3" cx="104" cy="32" r="4"/><circle class="cls-3" cx="346" cy="126" r="6"/><circle class="cls-3" cx="332" cy="214" r="2"/><circle class="cls-3" cx="486" cy="230" r="6"/><circle class="cls-3" cx="544" cy="116" r="4"/><circle class="cls-3" cx="1256" cy="68" r="4"/><circle class="cls-3" cx="1286" cy="202" r="6"/><path class="cls-3" d="M938,144a10,10,0,1,1,10-10A10,10,0,0,1,938,144Zm0-18a8,8,0,1,0,8,8A8,8,0,0,0,938,126Z"/><path class="cls-4" d="M232.2,108.07a6,6,0,1,1,6-6A6,6,0,0,1,232.2,108.07Zm0-10a4,4,0,1,0,4,4A4,4,0,0,0,232.2,98.07Z"/><circle class="cls-2" cx="246.37" cy="201.89" r="34.54"/><path class="cls-5" d="M278.42,150.69a8.53,8.53,0,1,1-11.76,2.7,8.54,8.54,0,0,1,11.76-2.7Zm-1.31,2.09a6.06,6.06,0,1,0,1.92,8.35h0a6.06,6.06,0,0,0-1.92-8.35Z"/><rect class="cls-1" x="261.06" y="159.09" width="11.55" height="20.2" rx="2" transform="translate(-18.12 305.67) rotate(-57.97)"/><path class="cls-6" d="M265,169a1.79,1.79,0,0,0-.38,2.49h0l-1.41,2.26,1.1.69,1.41-2.26a1.81,1.81,0,0,0,1.41-.33A1.79,1.79,0,0,0,265,169Zm8.21,3.93a1.79,1.79,0,0,0-2.93,2,.36.36,0,0,0,.07.1l-1.41,2.26L270,178l1.42-2.27a1.75,1.75,0,0,0,1.4-.32,1.78,1.78,0,0,0,.39-2.49h0Zm-13.93-7.51a1.79,1.79,0,0,0-.36,2.5l-1.41,2.26,1.09.69,1.4-2.27a1.79,1.79,0,0,0,.67-3.52,1.81,1.81,0,0,0-1.41.33Z"/><path class="cls-7" d="M270.45,226.66a11.13,11.13,0,0,1-1.36-3.33L267,214a6.56,6.56,0,0,0-7.86-4.92h0l-9.29,2.14a11.11,11.11,0,0,1-13.32-8.33v0h0l-2.14-9.29a6.56,6.56,0,0,0-7.86-4.93h0l-9.29,2.14a11.12,11.12,0,0,1-3.59.23,5.58,5.58,0,0,1,1.88-4.55,2.09,2.09,0,0,0,.69-.12l9.29-2.14a11.11,11.11,0,0,1,13.33,8.32v0h0l2.14,9.29a6.56,6.56,0,0,0,7.86,4.93h0l9.29-2.14A11.13,11.13,0,0,1,271.4,213h0l2.13,9.3c.05.22.12.45.19.67A5.38,5.38,0,0,1,270.45,226.66Z"/><path class="cls-7" d="M247.27,200.46a3.3,3.3,0,1,0-1.05-4.55,3.3,3.3,0,0,0,1.05,4.55Z"/><path class="cls-7" d="M224.45,200.62a3.3,3.3,0,1,0-1-4.56h0A3.3,3.3,0,0,0,224.45,200.62Z"/><path class="cls-7" d="M257.09,221.05a3.3,3.3,0,1,0-1-4.56h0A3.3,3.3,0,0,0,257.09,221.05Z"/><path class="cls-2" d="M1300.29,107.73c3.27,3.73-3.47,11.6,2.93,13.27,2.53.57,7,.6,8.49,3.2h0c2.78,3.3-1.43,8.41.62,11.78h0c.88,1.53,3.22,1.62,4.75,1.93a1,1,0,1,1-.35,2c-2.16-.33-4.82-.72-6.06-2.77h0c-1.92-2.27-.37-6.52,0-9.08.75-4.5-4.85-4.44-7.79-5.06a5.61,5.61,0,0,1-4.52-6.52c.45-3,2.45-8.21-2-9.07-2.52-.56-7-.61-8.5-3.2h0c-1.48-1.87-.92-4.51-.47-6.64a1,1,0,1,1,2,.36h0c-.25,1.54-1,3.76.15,5.13h0c2.43,3.09,8.69.93,10.81,4.69Z"/><path class="cls-1" d="M179.39,56.23c-3.76,3.23,1.81,12-4.75,12.73-2.59.21-7-.39-8.87,2h0c-3.21,2.88.24,8.53-2.25,11.57h0c-1.09,1.4-3.42,1.17-5,1.26a1,1,0,1,0,.08,2c2.18,0,4.87,0,6.38-1.9h0c2.22-2,1.28-6.4,1.29-9,.49-7.8,13.68.45,13.81-9.75-1.76-13.88,5.8-5.47,12.12-10.68h0c2.24-1.18,1.86-10.79-.62-6.43h0c0,1.57.45,3.86-.85,5.06h0c-2.85,2.73-8.75-.29-11.37,3.14Z"/><path class="cls-8" d="M1163.9,159.22a9.66,9.66,0,1,1-8.91-10.37,9.66,9.66,0,0,1,8.91,10.37Z"/><path class="cls-9" d="M1144.9,143.89l-7.41-8.62a4.75,4.75,0,0,1,.51-6.68l7.46-6.42a4.76,4.76,0,0,1,6.68.5l8,9.28,4.74,14.43-1,12.83-19.26-1.46.9-12A2.64,2.64,0,0,0,1144.9,143.89Z"/><path class="cls-8" d="M1160.12,132l2.75,3.2a9.63,9.63,0,0,1,2.31,7l-.32,4.21a8.21,8.21,0,0,1-7.58-8.81,8.3,8.3,0,0,1,2.84-5.62Z"/><rect class="cls-2" x="1129.03" y="114.75" width="18.96" height="13.76" rx="3.58" transform="translate(195.94 771.67) rotate(-40.69)"/><path class="cls-5" d="M1141.71,115.75l-9.49,8.17a1.32,1.32,0,1,1-1.8-1.93l.08-.07,9.49-8.17a1.32,1.32,0,0,1,1.72,2Z"/><path class="cls-3" d="M1152.83,135.07l2.45.18a1,1,0,0,0,1-.89l.18-2.46a1,1,0,0,0-1.18-.78,1,1,0,0,0-.74.64l-.11,1.49-1.5-.11a1,1,0,0,0-.8,1.17,1,1,0,0,0,.66.76ZM1149,141a1,1,0,0,0,.47-.75l.18-2.46a1,1,0,0,0-1.18-.78,1,1,0,0,0-.74.64l-.12,1.49-1.49-.11a1,1,0,0,0-.69,1.88.91.91,0,0,0,.54,0l2.46.19a.89.89,0,0,0,.57-.14Zm-2.3-8.82a1,1,0,0,0,1-.89l.19-2.46a1,1,0,0,0-1.17-.8,1,1,0,0,0-.76.66l-.11,1.49-1.49-.11a1,1,0,0,0-.69,1.88.91.91,0,0,0,.54,0l2.46.19Zm14.93,21.13a1,1,0,0,0-1.36-.17l-1.13,1-1-1.14h0a1,1,0,0,0-1.8.87,1,1,0,0,0,.35.4l1.6,1.87a1,1,0,0,0,1.23.2l.13-.1,1.87-1.6A1,1,0,0,0,1161.62,153.32Zm-10.38-.86-1.14,1-1-1.14a1,1,0,0,0-1.39.25,1,1,0,0,0-.08,1l1.61,1.87a1,1,0,0,0,1.23.2l.13-.1,1.87-1.61.07-.06a1,1,0,0,0-1.33-1.4Zm6.37-6.1a1,1,0,0,0-.27-1.38,1,1,0,0,0-1-.08l-1.14,1-1-1.14a1,1,0,0,0-1.46,1.26l1.61,1.87a1,1,0,0,0,1.23.2h0l.13-.09Z"/><path class="cls-10" d="M446.94,150.19l-5.62,12.41a6.18,6.18,0,0,1-8.16,3.06l-5.62-2.54a4.58,4.58,0,0,1,2.12-8.75,2.26,2.26,0,0,0,2.51-1.51l3.72-8.2a8.41,8.41,0,0,0,.51-5l-.35-1.78a4.56,4.56,0,0,0-3.82-4l-10-2.51a5.71,5.71,0,0,1,2.77-11l8.51,2.12a1.18,1.18,0,1,0,1-2.14h-.06a13.22,13.22,0,1,1,18-5.1A11.87,11.87,0,0,1,451.2,117c-.95,1.21.31,2.66,1.68,1.65l7.05-5.22a5.71,5.71,0,0,1,6.79,9.18l-8.31,6.16a4.54,4.54,0,0,0-2,5.1l.35,1.78a8.35,8.35,0,0,0,2.37,4.41l6.57,6.16a2.26,2.26,0,0,0,2.9.44,4.58,4.58,0,0,1,5.3,7.28l-4.21,4.49a6.18,6.18,0,0,1-8.72.29l-10-9.34a2.35,2.35,0,0,0-3.32-.29h0A2.35,2.35,0,0,0,446.94,150.19Z"/><path class="cls-11" d="M447.87,120.08a5.38,5.38,0,0,0-3.19,2,1.77,1.77,0,0,0-2.3.46,5.4,5.4,0,0,0-3.73-.66,1.49,1.49,0,0,0-1.17,1.74l.24,1.2L438,126a1.48,1.48,0,0,0,1.74,1.16,5.4,5.4,0,0,0,3.2-2,1.77,1.77,0,0,0,2.3-.46,5.35,5.35,0,0,0,3.73.66,1.46,1.46,0,0,0,1.16-1.72h0l-.24-1.21-.24-1.2A1.48,1.48,0,0,0,447.87,120.08Z"/><path class="cls-12" d="M434.24,113.79a8.48,8.48,0,0,0,14.61-2.9c.68-2.18-2.07-3-2.75-.86a5.59,5.59,0,0,1-9.64,1.91C435,110.19,432.78,112,434.24,113.79Zm-6.14,7a1.3,1.3,0,1,0-2.23,1.34l.9,1.51-2.5,1.49h0a1.29,1.29,0,0,0-.45,1.79h0l1.5,2.5-1.5.9a1.3,1.3,0,1,0,1.34,2.23h0l2.62-1.57h0a1.3,1.3,0,0,0,.45-1.78h0l-1.5-2.5,2.51-1.5a1.14,1.14,0,0,0,.32-.3,1.28,1.28,0,0,0,.13-1.49ZM442.9,156l-2.49.93-1-2.73h0a1.3,1.3,0,0,0-1.66-.77h0l-2.74,1-.94-2.5h0a1.3,1.3,0,0,0-1.67-.76h0a1.3,1.3,0,0,0-.76,1.67l1.4,3.71a1.3,1.3,0,0,0,1.67.76h0l2.73-1,1,2.73h0a1.31,1.31,0,0,0,1.68.76l3.71-1.4a1.3,1.3,0,1,0-.83-2.46l-.09,0Zm-9.18-49.66a2.09,2.09,0,1,0,1.65-2.45h0A2.11,2.11,0,0,0,433.72,106.29Zm8.64-1.71a2.09,2.09,0,1,0,1.64-2.46A2.09,2.09,0,0,0,442.36,104.58Zm15.48,14.94,2.88.43-.43,2.89a1.26,1.26,0,0,0,.14.74,1.28,1.28,0,0,0,.47.56,1.45,1.45,0,0,0,.49.18h0l3,.45a1.3,1.3,0,0,0,.38-2.58h0l-1.73-.25.43-2.89h0a1.29,1.29,0,0,0-1.06-1.47h0l-2.88-.43.26-1.74a1.31,1.31,0,0,0-1.1-1.48,1.3,1.3,0,0,0-1.48,1.09h0l-.45,3h0a1.31,1.31,0,0,0,1.1,1.49h0Zm8.5,30.4-.13-3.95a1.31,1.31,0,0,0-2.61.08l.09,2.66-2.92.1a1.3,1.3,0,0,0-1.26,1.32h0l.1,2.92-2.67.09a1.3,1.3,0,1,0,.09,2.6l4-.13a1.3,1.3,0,0,0,1.26-1.34h0l-.1-2.92,2.87-.1h.05a1.32,1.32,0,0,0,1.26-1.34h0Zm-21.42-20.54a2.09,2.09,0,1,0,2.46,1.64,2.09,2.09,0,0,0-2.46-1.64h0Zm1.6,8a2.09,2.09,0,0,0-1.64,2.46h0a2.09,2.09,0,1,0,1.64-2.46Z"/><path class="cls-13" d="M1011.23,132.76l.53-3.51-3.08,1.77a1.7,1.7,0,1,1-1.32-2h0l.36.12,3.3-1.3L1008,126a1.7,1.7,0,1,1,1.13-2.12h0a2.29,2.29,0,0,1,.07.36l2.77,2.22v-3.55a1.7,1.7,0,1,1,2.41-.08,2.17,2.17,0,0,1-.29.24l-.53,3.51,3.08-1.76a1.7,1.7,0,1,1,1.32,2h-.05a1.48,1.48,0,0,1-.35-.13l-3.3,1.3,3.07,1.78a1.7,1.7,0,0,1,1,3.26,1.71,1.71,0,0,1-2.11-1.13,2.2,2.2,0,0,1-.06-.37l-2.78-2.22v3.55a1.7,1.7,0,1,1-2.4.08h0a2.09,2.09,0,0,1,.28-.24Z"/><path class="cls-14" d="M107.23,192.76l.53-3.51L104.68,191a1.7,1.7,0,1,1-1.32-2h0a2.06,2.06,0,0,1,.35.12l3.31-1.3L104,186a1.7,1.7,0,1,1,1.13-2.12h0a2.29,2.29,0,0,1,.07.36l2.77,2.22v-3.55a1.7,1.7,0,1,1,2.41-.08,2.17,2.17,0,0,1-.29.24l-.53,3.51,3.08-1.76a1.7,1.7,0,1,1,1.32,2h0a1.48,1.48,0,0,1-.35-.13l-3.3,1.3,3.06,1.78A1.7,1.7,0,1,1,112.2,192a2.2,2.2,0,0,1-.06-.37l-2.78-2.22V193a1.7,1.7,0,1,1-2.4.08h0a2.09,2.09,0,0,1,.28-.24Z"/><path class="cls-14" d="M1311.23,36.9l.53-3.5-3.08,1.76a1.7,1.7,0,1,1-1.32-2h.05a1.55,1.55,0,0,1,.36.13l3.3-1.3L1308,30.16a1.7,1.7,0,1,1,1.13-2.12h0a2.2,2.2,0,0,1,.07.37l2.77,2.21V27.07a1.7,1.7,0,1,1,2.41-.08,3.47,3.47,0,0,1-.29.25l-.53,3.5,3.08-1.76a1.7,1.7,0,1,1,1.32,2h0a1.48,1.48,0,0,1-.35-.13l-3.3,1.3,3.07,1.79a1.7,1.7,0,1,1-1.14,2.12,1.15,1.15,0,0,1-.06-.37l-2.78-2.21V37a1.69,1.69,0,1,1-2.4.08l.28-.25Z"/><path class="cls-15" d="M960,237.69a4,4,0,0,0-3.49-2l-3.51.19a2.79,2.79,0,0,1-3.09-2.43h0v-.07l-.53-3.47a4,4,0,0,0-2.69-3l-3.4-.91a2.77,2.77,0,0,1-2.19-3.26h0v-.07l.57-3.48a4,4,0,0,0-1.63-3.68l-3-1.91a2.78,2.78,0,0,1-1.06-3.79h0v-.06l1.62-3.13a4,4,0,0,0-.42-4l-2.22-2.73a2.79,2.79,0,0,1,.16-3.94h.06l2.5-2.48a4,4,0,0,0,.84-3.94l-1.27-3.29a2.79,2.79,0,0,1,1.37-3.69h.07L941.8,181a4,4,0,0,0,2-3.48l-.19-3.52a2.78,2.78,0,0,1,2.44-3.09h.07l3.48-.54a3.93,3.93,0,0,0,3-2.69l.91-3.4a2.78,2.78,0,0,1,3.27-2.18h.07l3.48.57A4,4,0,0,0,964,161l1.91-2.95A2.78,2.78,0,0,1,969.7,157h.07l3.13,1.61a3.92,3.92,0,0,0,4-.41l2.73-2.22a2.79,2.79,0,0,1,3.94.16v0l2.48,2.51a4,4,0,0,0,3.94.84l3.28-1.27a2.79,2.79,0,0,1,3.7,1.37.09.09,0,0,1,0,.07l1.59,3.14a4,4,0,0,0,3.48,2l3.52-.19a2.77,2.77,0,0,1,3.08,2.42v.09l.53,3.47a4,4,0,0,0,2.69,3l3.41.91a2.79,2.79,0,0,1,2.18,3.28v.07l-.57,3.47a3.94,3.94,0,0,0,1.64,3.68l3,1.91a2.79,2.79,0,0,1,1.06,3.8v.06l-1.62,3.13a4,4,0,0,0,.42,4l2.22,2.73a2.79,2.79,0,0,1-.16,3.94l-.05,0-2.51,2.48a4,4,0,0,0-.84,3.94l1.27,3.28A2.79,2.79,0,0,1,1020,218h-.08l-3.14,1.58a4,4,0,0,0-2,3.49l.19,3.51a2.79,2.79,0,0,1-2.43,3.09h-.08l-3.48.53a4,4,0,0,0-3,2.69l-.9,3.4a2.78,2.78,0,0,1-3.27,2.18h-.08l-3.47-.57a3.94,3.94,0,0,0-3.68,1.63l-1.92,3a2.78,2.78,0,0,1-3.79,1.06h-.06L985.63,242a4,4,0,0,0-4,.41l-2.73,2.23a2.77,2.77,0,0,1-3.91-.15l0,0h-.05l-2.48-2.5a4,4,0,0,0-3.94-.84l-3.28,1.26a2.78,2.78,0,0,1-3.69-1.36h0V241L960,237.82Zm23.41-58.94a2.84,2.84,0,0,1-3.44-.37L977.17,176a2,2,0,0,0-2.78,0,2.07,2.07,0,0,0-.39.54l-1.9,3.15a2.84,2.84,0,0,1-3.16,1.4l-3.61-.71a2,2,0,0,0-2.42,1.36,1.78,1.78,0,0,0-.07.65l-.07,3.68a2.84,2.84,0,0,1-2,2.8L957.29,190a2,2,0,0,0-1.42,2.39,1.63,1.63,0,0,0,.27.6l1.77,3.22a2.85,2.85,0,0,1-.36,3.44l-2.42,2.78a2,2,0,0,0,0,2.77,1.87,1.87,0,0,0,.53.39l3.16,1.9a2.85,2.85,0,0,1,1.4,3.17l-.71,3.61a2,2,0,0,0,1.36,2.42,2,2,0,0,0,.65.07l3.68.07a2.83,2.83,0,0,1,2.8,2l1.19,3.48a2,2,0,0,0,2.38,1.42,2.23,2.23,0,0,0,.61-.27l3.22-1.78a2.84,2.84,0,0,1,3.44.37l2.78,2.42a2,2,0,0,0,2.77,0,1.87,1.87,0,0,0,.39-.53l1.9-3.15a2.82,2.82,0,0,1,3.16-1.4l3.62.7a1.94,1.94,0,0,0,2.4-1.32v0a1.84,1.84,0,0,0,.07-.66l.07-3.68a2.85,2.85,0,0,1,2-2.79l3.48-1.2a2,2,0,0,0,1.42-2.38,1.89,1.89,0,0,0-.26-.6l-1.78-3.23a2.84,2.84,0,0,1,.37-3.44l2.41-2.77a2,2,0,0,0,0-2.78,1.66,1.66,0,0,0-.53-.38l-3.16-1.91a2.84,2.84,0,0,1-1.4-3.16l.7-3.61a2,2,0,0,0-1.35-2.42,2,2,0,0,0-.65-.07l-3.68-.07a2.84,2.84,0,0,1-2.8-2l-1.19-3.48a2,2,0,0,0-2.38-1.42,2.17,2.17,0,0,0-.6.27Z"/><path class="cls-11" d="M1010.74,222.4a6.51,6.51,0,1,0-8.59-3.31h0A6.52,6.52,0,0,0,1010.74,222.4Z"/><path class="cls-8" d="M969.55,181.11a31.88,31.88,0,0,0-1.9-5.63h0l-8.5,3.77h0a22.63,22.63,0,0,1,2,9.41h0A16.76,16.76,0,0,0,969.55,181.11Z"/><path class="cls-11" d="M961.11,188.69a22.63,22.63,0,0,1-1.13,6.87.94.94,0,0,0,.45,1.23,1,1,0,0,0,.81,0l2.94-1.3a.94.94,0,0,1,1.11.19l2.1,1.8a1.09,1.09,0,0,0,1.52.12,1.07,1.07,0,0,0,.37-.66,32.34,32.34,0,0,0,.27-15.79Zm27.76-5.93A23.23,23.23,0,0,1,983,179l-11.26,1.17a32.29,32.29,0,0,0,11.88,10.41,1,1,0,0,0,.74.17,1.08,1.08,0,0,0,.93-1.21l.07-2.76a1,1,0,0,1,.61-1l2.93-1.3a.94.94,0,0,0,.56-.59.92.92,0,0,0-.62-1.13Z"/><path class="cls-8" d="M971.75,180.13a30.92,30.92,0,0,1-2.9-5.18h0l8.5-3.77h0A22.71,22.71,0,0,0,983,179h0A16.77,16.77,0,0,1,971.75,180.13Z"/><path class="cls-11" d="M955.9,185.6a19.76,19.76,0,0,0,9.62-9.61l-1.64-3.7a27,27,0,0,0-16.07,7.13l1.64,3.69A4.9,4.9,0,0,0,955.9,185.6Z"/><path class="cls-8" d="M948.66,169.28a19.75,19.75,0,0,1,13.59-.68l1.64,3.7-16,7.12-1.68-3.73A4.91,4.91,0,0,1,948.66,169.28Z"/><path class="cls-11" d="M984.24,173a19.66,19.66,0,0,1-13.58.67L969,170a27,27,0,0,1,16.07-7.12l1.64,3.69A4.91,4.91,0,0,1,984.24,173Z"/><path class="cls-8" d="M977,156.69a19.6,19.6,0,0,0-9.62,9.61L969,170l16.08-7.12-1.64-3.7A4.9,4.9,0,0,0,977,156.69Z"/><path class="cls-8" d="M972.45,168.5A6.56,6.56,0,0,1,960.53,174a.77.77,0,0,1-.07-.16l4.48-6.07Z"/><path class="cls-11" d="M963.76,165.09a6.61,6.61,0,0,1,8.69,3.41,32.17,32.17,0,0,0-12,5.32,6.61,6.61,0,0,1,3.31-8.73Z"/><path class="cls-13" d="M987.67,227.94a3.62,3.62,0,1,0,1.85-4.77h0A3.63,3.63,0,0,0,987.67,227.94Zm10.28-.25h0a3.62,3.62,0,1,0,3.21,4,3.63,3.63,0,0,0-3.21-4Zm-5.71,4a3.6,3.6,0,0,0-5,.78h0a3.62,3.62,0,0,0,.79,5h0a3.61,3.61,0,0,0,4.26-5.84h0ZM949,220.05a3.61,3.61,0,1,0,5.08.54,3.62,3.62,0,0,0-5.08-.54Zm11.63-1.82A3.61,3.61,0,1,0,958,225h0a3.61,3.61,0,0,0,4.67-2.07h0a3.61,3.61,0,0,0-2-4.68h0Zm-5.87.59a3.61,3.61,0,1,0-4.12-3h0a3.6,3.6,0,0,0,4.12,3Zm63.8-24.76h0a3.61,3.61,0,1,0-3,4.12h0a3.6,3.6,0,0,0,3-4.11v0Zm-8.61,2.31A3.61,3.61,0,1,0,1012,201h0a3.61,3.61,0,0,0-2-4.68h0Zm-.29-1.88a3.62,3.62,0,0,0-4.54-5.63h0a3.61,3.61,0,0,0,4.54,5.62h0Z"/><path class="cls-16" d="M990.13,224.56a1,1,0,0,0-.53,1.31v0h0a1,1,0,0,0,1.81-.85,1,1,0,0,0-1.29-.5Zm8.62,5.82h0a1,1,0,1,0,.9,1.12,1,1,0,0,0-.9-1.12Zm-10.1,4.48h0a1,1,0,1,0,1.43-.22,1,1,0,0,0-1.43.22Zm-38.89-12.17a1,1,0,0,0-.17,1.4l0,0h0a1,1,0,0,0,1.41.12,1,1,0,0,0-1.26-1.55ZM960.67,221a1,1,0,1,0,.58,1.32h0a1,1,0,0,0-.58-1.28Zm-6.82-7.86a1,1,0,0,0-.86,1.12v0h0a1,1,0,1,0,2-.32,1,1,0,0,0-1.15-.81Zm62-19.74a1,1,0,0,0-.86,1.12v.05a1,1,0,0,0,1.13.86h0a1,1,0,0,0-.31-2Zm-7.28,6.35a1,1,0,0,0-.72,2h0a1,1,0,0,0,1.3-.55l0,0h0a1,1,0,0,0-.53-1.31l0,0Zm-1.12-9.59a1,1,0,0,0-1.4-.18l0,0h0a1,1,0,1,0,1.27,1.59,1,1,0,0,0,.18-1.39Z"/><path class="cls-17" d="M974.68,238.38a6.51,6.51,0,1,0-8.59-3.32h0a6.49,6.49,0,0,0,8.56,3.32Z"/><path class="cls-18" d="M949.1,204.42a6.51,6.51,0,1,0-8.59-3.32h0A6.53,6.53,0,0,0,949.1,204.42Z"/><path class="cls-7" d="M1002.75,180.63a6.5,6.5,0,1,0-8.59-3.31A6.5,6.5,0,0,0,1002.75,180.63Z"/><path class="cls-19" d="M1007.12,212.11a.85.85,0,0,0-1.13-.44h0a5.19,5.19,0,0,0-2.65,6.86v0a.86.86,0,1,0,1.58-.7h0a3.5,3.5,0,0,1,1.78-4.62h0A.87.87,0,0,0,1007.12,212.11Zm-37.2,15.58h0a5.2,5.2,0,0,0-2.63,6.88h0a.37.37,0,0,0,.05.11.87.87,0,0,0,1.53-.81h0a3.5,3.5,0,0,1,1.79-4.62.85.85,0,0,0,.44-1.13h0a.89.89,0,0,0-1.17-.44Zm-25.58-34h0a5.23,5.23,0,0,0-2.65,6.89.87.87,0,0,0,1.59-.7h0a3.49,3.49,0,0,1,1.76-4.61h0a.87.87,0,0,0-.71-1.58ZM998,169.91h0a5.24,5.24,0,0,0-2.64,6.9.87.87,0,0,0,1.58-.71h0a3.5,3.5,0,0,1,1.77-4.61h0a.87.87,0,0,0-.7-1.59Z"/><path class="cls-13" d="M333.11,255.4l.82-5.43-4.76,2.73a2.62,2.62,0,1,1-2-3.15,3.13,3.13,0,0,1,.54.19l5.11-2-4.7-2.74a2.65,2.65,0,1,1,1.85-2.71l4.29,3.42v-5.48a2.62,2.62,0,1,1,3.7-.12h0a2.54,2.54,0,0,1-.43.37l-.82,5.42,4.76-2.72a2.62,2.62,0,1,1,2,3.14,2.45,2.45,0,0,1-.54-.18l-5.1,2,4.74,2.75a2.65,2.65,0,1,1-1.73,3.32,2.13,2.13,0,0,1-.12-.61l-4.29-3.42v5.49a2.62,2.62,0,1,1-3.7.12h0a2.16,2.16,0,0,1,.43-.37Z"/></svg>