<svg width="1408" height="276" viewBox="0 0 1408 276" fill="none" xmlns="http://www.w3.org/2000/svg">
<g clip-path="url(#clip0_6_2)">
<path d="M262.237 50H260.763V79.4699H262.237V50Z" fill="black"/>
<path d="M267.284 77.737C267.284 80.1753 264.694 82.1518 261.5 82.1518C258.306 82.1518 255.716 80.1753 255.716 77.737C255.716 75.2988 261.5 70.2424 261.5 70.2424C261.5 70.2424 267.284 75.2995 267.284 77.737Z" fill="#606B4A"/>
<path d="M261.5 88.2993C266.179 88.2993 269.972 86.3228 269.972 83.8846C269.972 81.4464 266.179 79.4699 261.5 79.4699C256.821 79.4699 253.028 81.4464 253.028 83.8846C253.028 86.3228 256.821 88.2993 261.5 88.2993Z" fill="#23130A"/>
<path d="M261.5 151.811C286.629 151.811 307 136.606 307 117.848C307 99.0911 286.629 83.8854 261.5 83.8854C236.371 83.8854 216 99.0911 216 117.848C216 136.606 236.371 151.811 261.5 151.811Z" fill="#B73714"/>
<path d="M283.057 93.8859C287.179 98.9438 292.092 106.889 292.091 116.015C292.089 126.277 285.99 135.966 273.964 144.811C273.748 144.97 273.696 145.282 273.849 145.507C273.942 145.645 274.091 145.718 274.241 145.718C274.336 145.718 274.433 145.688 274.518 145.627C286.815 136.582 293.05 126.618 293.05 116.01C293.05 101.587 281.31 89.94 276.52 85.7873C275.81 85.6013 275.091 85.4292 274.364 85.2693C275.562 86.2115 279.327 89.3098 283.057 93.8859Z" fill="#E8AD4F"/>
<path d="M248.483 145.628C248.567 145.689 248.664 145.719 248.759 145.719C248.909 145.719 249.058 145.645 249.151 145.508C249.304 145.282 249.252 144.971 249.036 144.812C237.01 135.967 230.911 126.278 230.909 116.016C230.908 106.89 235.821 98.9446 239.943 93.8867C243.673 89.3106 247.437 86.2122 248.637 85.2709C247.91 85.4307 247.191 85.6028 246.48 85.7888C241.691 89.9407 229.95 101.588 229.95 116.012C229.95 126.619 236.185 136.583 248.483 145.628Z" fill="#E8AD4F"/>
<path d="M266.806 144.524C266.875 144.56 266.948 144.577 267.021 144.577C267.197 144.577 267.365 144.477 267.449 144.302C281.867 114.419 270.7 89.495 267.983 84.2327C267.601 84.192 267.216 84.1566 266.83 84.1236C268.68 87.5063 281.491 112.975 266.593 143.853C266.474 144.101 266.569 144.4 266.806 144.524Z" fill="#E8AD4F"/>
<path d="M255.017 84.2343C252.3 89.4966 241.133 114.42 255.551 144.303C255.635 144.477 255.803 144.578 255.979 144.578C256.051 144.578 256.125 144.561 256.194 144.525C256.431 144.401 256.526 144.101 256.407 143.854C241.509 112.976 254.32 87.5071 256.17 84.1244C255.784 84.1582 255.399 84.1936 255.017 84.2343Z" fill="#E8AD4F"/>
<path opacity="0.44" d="M230.457 142.668C238.587 148.336 249.497 151.811 261.5 151.811C278.886 151.811 293.989 144.53 301.649 133.832C293.519 128.164 282.609 124.689 270.606 124.689C253.22 124.689 238.117 131.97 230.457 142.668Z" fill="#23130A"/>
<path d="M261.5 153.122C273.909 153.122 283.968 150.213 283.968 146.626C283.968 143.038 273.909 140.13 261.5 140.13C249.092 140.13 239.032 143.038 239.032 146.626C239.032 150.213 249.092 153.122 261.5 153.122Z" fill="#4C0F07"/>
<path d="M261.5 151.812C271.005 151.812 278.71 149.892 278.71 147.523C278.71 145.155 271.005 143.235 261.5 143.235C251.995 143.235 244.29 145.155 244.29 147.523C244.29 149.892 251.995 151.812 261.5 151.812Z" fill="#23130A"/>
<path d="M261.5 150.319C267.299 150.319 271.999 149.329 271.999 148.107C271.999 146.885 267.299 145.894 261.5 145.894C255.701 145.894 251.001 146.885 251.001 148.107C251.001 149.329 255.701 150.319 261.5 150.319Z" fill="#D63818"/>
<path d="M264.412 159.237C264.412 157.561 263.108 156.202 261.5 156.202C259.892 156.202 258.587 157.561 258.587 159.237C258.587 160.913 259.891 162.271 261.5 162.271C263.108 162.272 264.412 160.914 264.412 159.237Z" fill="#606B4A"/>
<path d="M262.956 165.583C262.956 163.754 262.305 162.271 261.5 162.271C260.695 162.271 260.044 163.754 260.044 165.583C260.044 167.412 260.695 168.894 261.5 168.894C262.305 168.894 262.956 167.412 262.956 165.583Z" fill="#892A0F"/>
<path d="M261.5 168.894C261.5 168.894 258.587 171.791 258.587 175.654H261.5H264.412C264.412 171.791 261.5 168.894 261.5 168.894Z" fill="#23130A"/>
<path d="M264.412 175.653H261.5H258.588C258.588 175.653 254.259 181.999 254.259 190H258.283C258.63 188.145 259.62 183.172 259.62 183.172L260.462 190H261.5H268.741C268.741 181.999 264.412 175.653 264.412 175.653Z" fill="#E8AD4F"/>
<path d="M262.237 145.894H260.763V156.202H262.237V145.894Z" fill="black"/>
<path d="M465.825 117.356C465.579 113.384 464.972 112.047 464.352 109.315L463.236 104.427L460.076 119.677L413.169 131.367L415.955 143.638C416.478 145.943 418.477 147.454 420.419 147.013L460.075 138.012C461.272 137.74 462.199 136.864 462.699 135.702C463.001 135 463.148 134.195 463.099 133.353L465.825 117.356Z" fill="#485038"/>
<path d="M440.199 142.908C440.007 142.951 439.811 142.803 439.759 142.575L436.342 127.522C436.291 127.295 436.404 127.076 436.595 127.032C436.787 126.989 436.983 127.137 437.035 127.365L440.452 142.418C440.503 142.645 440.39 142.864 440.199 142.908Z" fill="#23130A"/>
<path d="M425.434 145.884L425.083 145.945C424.981 145.399 422.597 132.55 425.568 131.092L425.727 131.479C423.005 132.815 425.409 145.754 425.434 145.884Z" fill="#E8AD4F"/>
<path d="M455.119 139.167L454.763 139.187C454.363 135.383 450.555 125.777 450.517 125.681L450.84 125.528C450.997 125.925 454.712 135.296 455.119 139.167Z" fill="#E8AD4F"/>
<path d="M463.31 133.129L462.957 133.171C462.445 129.77 458.758 123.316 458.721 123.251L459.015 123.037C459.168 123.305 462.784 129.637 463.31 133.129Z" fill="#E8AD4F"/>
<path d="M458.969 101.7L425.488 109.299C421.33 110.243 418.008 113.595 416.641 118.227L413.21 129.854C412.641 131.784 414.195 133.838 415.928 133.444L456.584 124.216C459.207 123.621 461.183 121.275 461.651 118.203L463.037 109.101C464.284 104.874 462.763 100.839 458.969 101.7Z" fill="#606B4A"/>
<mask id="mask0_6_2" style="mask-type:luminance" maskUnits="userSpaceOnUse" x="413" y="101" width="51" height="33">
<path d="M458.969 101.7L425.488 109.299C421.33 110.243 418.008 113.595 416.641 118.227L413.21 129.854C412.641 131.784 414.195 133.838 415.928 133.444L456.584 124.216C459.207 123.621 461.183 121.275 461.651 118.203L463.037 109.101C464.284 104.874 462.763 100.839 458.969 101.7Z" fill="white"/>
</mask>
<g mask="url(#mask0_6_2)">
<path d="M432.855 115.087C430.676 112.621 422.378 110.292 422.294 110.269L422.353 109.863C422.698 109.959 430.838 112.244 433.095 114.797L432.855 115.087Z" fill="#E8AD4F"/>
<path d="M412.622 130.656L412.437 130.283C412.992 129.939 426.115 121.877 432.872 121.999L432.893 122.418C426.225 122.299 412.757 130.572 412.622 130.656Z" fill="#E8AD4F"/>
<path d="M428.238 130.844L427.919 130.624C428.034 130.377 430.765 124.573 434.487 124.296L434.537 124.714C430.992 124.977 428.265 130.785 428.238 130.844Z" fill="#E8AD4F"/>
<path d="M445.407 126.805C444.863 124.575 440.019 123.436 439.97 123.425L440.014 123.015C440.223 123.063 445.143 124.22 445.752 126.718L445.407 126.805Z" fill="#E8AD4F"/>
<path d="M461.485 120.818C460.633 119.3 457.008 118.39 451.002 118.187C446.423 118.032 442.054 118.354 442.01 118.358L441.961 117.94C442.679 117.887 459.57 116.667 461.781 120.607L461.485 120.818Z" fill="#E8AD4F"/>
<path d="M443.23 111.357L443.059 110.975C443.206 110.895 457.908 102.967 466.661 103.439L466.672 103.857C458.003 103.388 443.376 111.277 443.23 111.357Z" fill="#E8AD4F"/>
</g>
<path d="M431.28 119.458L415.46 123.049C415.268 123.092 415.072 122.944 415.02 122.716C414.969 122.489 415.082 122.27 415.273 122.227L431.094 118.636C431.285 118.593 431.482 118.741 431.533 118.968C431.585 119.195 431.472 119.414 431.28 119.458Z" fill="#23130A"/>
<path d="M464.967 122.745C464.776 122.789 464.579 122.64 464.528 122.413L462.26 112.424L446.015 116.06C445.824 116.103 445.627 115.953 445.576 115.726C445.525 115.499 445.639 115.281 445.829 115.238L445.83 115.237L462.422 111.525C462.613 111.482 462.809 111.63 462.86 111.857L465.22 122.256C465.272 122.483 465.159 122.702 464.967 122.745Z" fill="#23130A"/>
<path d="M430.868 119.066L440.109 107.269L446.24 115.576L437 127.373L430.868 119.066Z" fill="#E8AD4F"/>
<path d="M440.109 107.269L446.24 115.576L437 127.373L430.868 119.066L440.109 107.269ZM440.322 105.89L439.694 106.698L430.453 118.495L429.814 119.305L430.229 119.877L436.36 128.184L436.786 128.753L437.426 127.942L446.666 116.146L447.294 115.338L446.868 114.769L440.737 106.462L440.322 105.89Z" fill="#830409"/>
<path d="M432.102 118.786L439.859 108.883L445.006 115.857L437.249 125.759L432.102 118.786Z" fill="#FAF2DD"/>
<path d="M442.107 119.377L439.112 120.057L438.737 122.5L437.657 122.745L438.035 120.302L434.095 121.196L434.301 119.893L435.683 119.58L436.156 116.575L438.701 115.997L438.912 114.638L437.048 115.061C436.564 115.953 436.031 116.779 435.537 117.409C435.372 117.226 434.999 116.871 434.777 116.734C435.699 115.687 436.6 114.072 437.204 112.514L438.2 112.629C438.072 112.967 437.928 113.297 437.767 113.631L442.68 112.516L442.481 113.828L439.982 114.395L439.774 115.754L442.076 115.231L441.884 116.497L439.579 117.021L439.312 118.756L442.303 118.077L442.107 119.377ZM438.237 119L438.505 117.265L436.995 117.608L436.724 119.344L438.237 119Z" fill="#23130A"/>
<path d="M947.019 101.197C951.264 89.8217 952.073 103.727 947.391 107.591C952.073 103.727 965.572 107.158 953.599 109.169C965.572 107.158 953.935 114.811 948.247 112.688C953.935 114.811 957.713 128.217 949.984 118.853C957.712 128.217 945.266 121.965 944.261 115.978C945.266 121.965 935.546 131.94 939.791 120.565C935.546 131.94 934.737 118.035 939.419 114.171C934.737 118.035 921.238 114.604 933.211 112.593C921.237 114.604 932.875 106.951 938.563 109.074C932.876 106.951 929.097 93.5447 936.825 102.909C929.097 93.5447 941.543 99.7967 942.549 105.784C941.544 99.7977 951.265 89.8217 947.019 101.197Z" fill="#67200B"/>
<path d="M948.373 112.735C949.397 109.992 948.003 106.938 945.26 105.914C942.517 104.89 939.463 106.284 938.439 109.028C937.415 111.771 938.809 114.825 941.552 115.849C944.295 116.872 947.349 115.479 948.373 112.735Z" fill="#E8AD4F"/>
<path d="M929.163 201.111C932.883 195.49 931.102 188.07 925.185 184.536C919.267 181.003 911.455 182.695 907.735 188.316C904.015 193.936 905.797 201.357 911.714 204.89C917.631 208.424 925.444 206.731 929.163 201.111Z" fill="#4C0F07"/>
<path d="M929.051 203.5C933.994 198.806 933.994 191.194 929.051 186.5C924.109 181.806 916.096 181.806 911.154 186.5C906.212 191.194 906.212 198.806 911.154 203.5C916.096 208.194 924.109 208.194 929.051 203.5Z" fill="#E8AD4F"/>
<path d="M921.97 204.408C927.44 203.426 931.037 198.419 930.004 193.223C928.971 188.027 923.699 184.61 918.228 185.592C912.758 186.573 909.161 191.581 910.194 196.777C911.228 201.973 916.5 205.389 921.97 204.408Z" fill="#D68A27"/>
<path d="M922.258 202.568C917.865 203.696 913.325 201.22 912.137 197.047C910.949 192.874 913.556 188.561 917.95 187.433C922.343 186.305 926.883 188.781 928.071 192.954C929.259 197.127 926.651 201.44 922.258 202.568ZM918.148 188.128C914.158 189.153 911.79 193.069 912.869 196.859C913.947 200.648 918.071 202.898 922.061 201.873C926.05 200.849 928.418 196.932 927.339 193.142C926.26 189.353 922.137 187.104 918.148 188.128Z" fill="#E8AD4F"/>
<path d="M921.866 192.076L917.022 193.32L918.332 197.921L923.176 196.677L921.866 192.076Z" fill="#67200B"/>
<path d="M920.956 192.313L921.984 195.925L918.055 196.934L918.337 197.924L923.181 196.679L921.871 192.078L920.956 192.313Z" fill="#4C0F07"/>
<path d="M456.372 202.621C461.428 193.793 440.572 193.793 445.628 202.621C440.572 193.793 430.143 212 440.256 212C430.143 212 440.572 230.207 445.628 221.379C440.572 230.207 461.428 230.207 456.372 221.379C461.428 230.207 471.856 212 461.744 212C471.857 212 461.428 193.793 456.372 202.621Z" fill="#67200B"/>
<path d="M455.066 204.902C458.891 198.222 443.109 198.222 446.935 204.902C443.109 198.222 435.217 211.999 442.87 211.999C435.218 211.999 443.109 225.777 446.935 219.097C443.109 225.777 458.891 225.777 455.066 219.097C458.891 225.777 466.783 211.999 459.131 211.999C466.782 212 458.891 198.223 455.066 204.902Z" fill="#892A0F"/>
<path d="M453.755 207.19C456.347 202.664 445.652 202.664 448.245 207.19C445.653 202.664 440.305 212 445.49 212C440.305 212 445.653 221.336 448.245 216.81C445.653 221.336 456.348 221.336 453.755 216.81C456.347 221.336 461.695 212 456.509 212C461.695 212 456.348 202.664 453.755 207.19Z" fill="#D63818"/>
<path d="M451 216.042C453.214 216.042 455.01 214.232 455.01 212C455.01 209.768 453.214 207.958 451 207.958C448.785 207.958 446.99 209.768 446.99 212C446.99 214.232 448.785 216.042 451 216.042Z" fill="#E8AD4F"/>
<path fill-rule="evenodd" clip-rule="evenodd" d="M118.993 91.7113H127.886L135.421 98.9359V130H111.457V98.9359L118.993 91.7113Z" fill="#A52414"/>
<path fill-rule="evenodd" clip-rule="evenodd" d="M123.439 97.7804C124.477 97.7804 125.323 96.9688 125.323 95.9743C125.323 94.9798 124.477 94.1683 123.439 94.1683C122.401 94.1683 121.555 94.9798 121.555 95.9743C121.555 96.9688 122.401 97.7804 123.439 97.7804Z" fill="#F7E9C9"/>
<path fill-rule="evenodd" clip-rule="evenodd" d="M123.504 82.9608C129.258 82.9608 133.952 78.4612 133.952 72.9447C133.952 67.4275 129.259 62.9286 123.504 62.9286C117.748 62.9286 113.055 67.4281 113.055 72.9447C113.055 78.4612 117.749 82.9608 123.504 82.9608Z" fill="#E6AF33"/>
<path fill-rule="evenodd" clip-rule="evenodd" d="M123.504 62.0302C126.647 62.0302 129.493 63.252 131.554 65.227C133.614 67.202 134.889 69.9308 134.889 72.9447C134.889 75.9586 133.614 78.6874 131.554 80.6624C129.493 82.6374 126.647 83.8592 123.504 83.8592C120.36 83.8592 117.513 82.6374 115.453 80.6624C113.393 78.6874 112.118 75.9586 112.118 72.9447C112.118 69.9308 113.393 67.202 115.453 65.227C117.513 63.252 120.36 62.0302 123.504 62.0302ZM130.23 66.4975C128.508 64.8477 126.13 63.8264 123.504 63.8264C120.877 63.8264 118.499 64.8471 116.779 66.4975C115.057 68.1473 113.993 70.4268 113.993 72.9447C113.993 75.4625 115.057 77.7421 116.779 79.3925C118.5 81.0423 120.878 82.0629 123.504 82.0629C126.131 82.0629 128.509 81.0423 130.23 79.3925C131.951 77.7427 133.015 75.4632 133.015 72.9447C133.015 70.4268 131.951 68.1473 130.23 66.4975Z" fill="#D68019"/>
<path d="M126.784 69.8007H120.225V76.088H126.784V69.8007Z" fill="#F7E9C9"/>
<path fill-rule="evenodd" clip-rule="evenodd" d="M120.225 68.9029H126.784C127.301 68.9029 127.721 69.3053 127.721 69.8013V76.0887C127.721 76.5847 127.301 76.9871 126.784 76.9871H120.225C119.706 76.9871 119.287 76.5847 119.287 76.0887V69.8007C119.287 69.3047 119.706 68.9029 120.225 68.9029ZM125.847 70.6992H121.161V75.1908H125.847V70.6992Z" fill="#D68019"/>
<path d="M125.81 58.0026C131.438 56.7795 134.966 51.4145 133.69 46.0196C132.414 40.6248 126.817 37.2429 121.19 38.466C115.562 39.6892 112.034 45.0541 113.31 50.449C114.586 55.8439 120.183 59.2257 125.81 58.0026Z" fill="#E6AF33"/>
<path fill-rule="evenodd" clip-rule="evenodd" d="M123.504 37.3221C126.647 37.3221 129.493 38.5434 131.554 40.519C133.614 42.494 134.889 45.2228 134.889 48.2367C134.889 51.2505 133.614 53.9793 131.554 55.9543C129.493 57.9294 126.647 59.1512 123.504 59.1512C120.36 59.1512 117.513 57.9294 115.453 55.9543C113.393 53.9787 112.118 51.2505 112.118 48.2367C112.118 45.2228 113.393 42.494 115.453 40.519C117.513 38.5434 120.36 37.3221 123.504 37.3221ZM130.23 41.7888C128.508 40.139 126.13 39.1184 123.504 39.1184C120.877 39.1184 118.499 40.139 116.779 41.7888C115.057 43.4386 113.993 45.7182 113.993 48.2361C113.993 50.7539 115.057 53.0335 116.779 54.6839C118.5 56.3337 120.878 57.3543 123.504 57.3543C126.131 57.3543 128.509 56.3337 130.23 54.6839C131.951 53.0341 133.015 50.7545 133.015 48.2361C133.015 45.7188 131.951 43.4392 130.23 41.7888Z" fill="#D68019"/>
<path d="M126.784 45.0927H120.225V51.38H126.784V45.0927Z" fill="#F7E9C9"/>
<path fill-rule="evenodd" clip-rule="evenodd" d="M120.225 44.1942H126.784C127.301 44.1942 127.721 44.5966 127.721 45.0927V51.38C127.721 51.876 127.301 52.2785 126.784 52.2785H120.225C119.706 52.2785 119.287 51.876 119.287 51.38V45.0927C119.287 44.5966 119.706 44.1942 120.225 44.1942ZM125.847 45.9905H121.161V50.4822H125.847V45.9905Z" fill="#D68019"/>
<path d="M123.764 33.6146C129.533 33.4763 134.093 28.8812 133.948 23.3511C133.804 17.821 129.011 13.4501 123.241 13.5884C117.472 13.7268 112.913 18.3219 113.057 23.852C113.201 29.382 117.995 33.7529 123.764 33.6146Z" fill="#E6AF33"/>
<path fill-rule="evenodd" clip-rule="evenodd" d="M123.504 12.6852C126.647 12.6852 129.493 13.9064 131.554 15.8821C133.614 17.8571 134.889 20.5859 134.889 23.5998C134.889 26.6136 133.614 29.3424 131.554 31.3174C129.493 33.2931 126.647 34.5143 123.504 34.5143C120.36 34.5143 117.513 33.2931 115.453 31.3174C113.393 29.3424 112.118 26.6136 112.118 23.5998C112.118 20.5859 113.393 17.8571 115.453 15.8821C117.513 13.9071 120.36 12.6852 123.504 12.6852ZM130.23 17.1525C128.508 15.5027 126.13 14.4821 123.504 14.4821C120.877 14.4821 118.499 15.5027 116.779 17.1525C115.057 18.8023 113.993 21.0819 113.993 23.5998C113.993 26.1176 115.057 28.3972 116.779 30.047C118.5 31.6968 120.878 32.7174 123.504 32.7174C126.131 32.7174 128.509 31.6968 130.23 30.047C131.951 28.3972 133.015 26.1176 133.015 23.5998C133.015 21.0819 131.951 18.8023 130.23 17.1525Z" fill="#D68019"/>
<path d="M126.784 20.4564H120.225V26.7437H126.784V20.4564Z" fill="#F7E9C9"/>
<path fill-rule="evenodd" clip-rule="evenodd" d="M120.225 19.5573H126.784C127.301 19.5573 127.721 19.9598 127.721 20.4558V26.7431C127.721 27.2392 127.301 27.6416 126.784 27.6416H120.225C119.706 27.6416 119.287 27.2392 119.287 26.7431V20.4564C119.287 19.9598 119.706 19.5573 120.225 19.5573ZM125.847 21.3542H121.161V25.8453H125.847V21.3542Z" fill="#D68019"/>
<path fill-rule="evenodd" clip-rule="evenodd" d="M122.801 -2.64986C122.801 -2.84317 123.115 -3 123.504 -3C123.892 -3 124.206 -2.84317 124.206 -2.64986V20.8941C124.206 21.0874 123.892 21.2442 123.504 21.2442C123.115 21.2442 122.801 21.0874 122.801 20.8941V-2.64986Z" fill="#731602"/>
<path fill-rule="evenodd" clip-rule="evenodd" d="M122.801 26.01C122.801 25.8459 123.115 25.7133 123.504 25.7133C123.892 25.7133 124.206 25.8459 124.206 26.01V45.8179C124.206 45.9814 123.892 46.1145 123.504 46.1145C123.115 46.1145 122.801 45.9814 122.801 45.8179V26.01Z" fill="#731602"/>
<path fill-rule="evenodd" clip-rule="evenodd" d="M123.504 12.0719C124.405 12.0719 125.14 11.3673 125.14 10.5035C125.14 9.63972 124.405 8.93457 123.504 8.93457C122.602 8.93457 121.868 9.63911 121.868 10.5035C121.868 11.3673 122.602 12.0719 123.504 12.0719Z" fill="#D68019"/>
<path fill-rule="evenodd" clip-rule="evenodd" d="M123.504 37.4285C124.405 37.4285 125.14 36.724 125.14 35.8601C125.14 34.9963 124.405 34.2918 123.504 34.2918C122.602 34.2918 121.868 34.9963 121.868 35.8601C121.868 36.724 122.602 37.4285 123.504 37.4285Z" fill="#D68019"/>
<path fill-rule="evenodd" clip-rule="evenodd" d="M122.801 50.6731C122.801 50.5089 123.115 50.377 123.504 50.377C123.892 50.377 124.206 50.5095 124.206 50.6731V70.4809C124.206 70.6451 123.892 70.7776 123.504 70.7776C123.115 70.7776 122.801 70.6451 122.801 70.4809V50.6731Z" fill="#731602"/>
<path fill-rule="evenodd" clip-rule="evenodd" d="M123.504 62.0654C124.405 62.0654 125.14 61.3608 125.14 60.497C125.14 59.6332 124.405 58.9287 123.504 58.9287C122.602 58.9287 121.868 59.6332 121.868 60.497C121.868 61.3608 122.602 62.0654 123.504 62.0654Z" fill="#D68019"/>
<path fill-rule="evenodd" clip-rule="evenodd" d="M122.801 75.4334C122.801 75.2771 123.115 75.1507 123.504 75.1507C123.892 75.1507 124.206 75.2771 124.206 75.4334V94.6011C124.206 94.7574 123.892 94.8844 123.504 94.8844C123.115 94.8844 122.801 94.7574 122.801 94.6011V75.4334Z" fill="#731602"/>
<path fill-rule="evenodd" clip-rule="evenodd" d="M123.405 88.8396C124.642 88.8396 125.651 87.8719 125.651 86.6853C125.651 85.4993 124.642 84.5322 123.405 84.5322C122.167 84.5322 121.158 85.4993 121.158 86.6853C121.158 87.8719 122.167 88.8396 123.405 88.8396Z" fill="#D68019"/>
<path fill-rule="evenodd" clip-rule="evenodd" d="M113.612 99.4368H133.266C133.51 99.4368 133.708 99.6265 133.708 99.8605V128.272C133.708 128.506 133.51 128.695 133.266 128.695H113.612C113.368 128.695 113.17 128.506 113.17 128.272V99.8605C113.17 99.6265 113.368 99.4368 113.612 99.4368ZM132.824 100.285H114.054V127.849H132.824V100.285Z" fill="#D68019"/>
<path d="M207.454 42.227C197.094 42.227 190.227 35.36 190.227 25C190.227 35.36 183.36 42.227 173 42.227C183.36 42.227 190.227 49.094 190.227 59.454C190.227 49.093 197.094 42.227 207.454 42.227Z" fill="#E8AD4F"/>
<path d="M95 195.5C88.0841 195.5 83.5 190.517 83.5 183C83.5 190.517 78.9159 195.5 72 195.5C78.9159 195.5 83.5 200.483 83.5 208C83.5 200.482 88.0841 195.5 95 195.5Z" fill="#E8AD4F"/>
<path d="M88.528 152.264C81.754 152.264 77.264 147.774 77.264 141C77.264 147.774 72.774 152.264 66 152.264C72.774 152.264 77.264 156.754 77.264 163.528C77.264 156.754 81.754 152.264 88.528 152.264Z" fill="#E8AD4F"/>
<path d="M1144.53 231.264C1137.75 231.264 1133.26 226.774 1133.26 220C1133.26 226.774 1128.77 231.264 1122 231.264C1128.77 231.264 1133.26 235.754 1133.26 242.528C1133.26 235.754 1137.75 231.264 1144.53 231.264Z" fill="#E8AD4F"/>
<path d="M1362.45 165.227C1352.09 165.227 1345.23 158.36 1345.23 148C1345.23 158.36 1338.36 165.227 1328 165.227C1338.36 165.227 1345.23 172.094 1345.23 182.454C1345.23 172.093 1352.09 165.227 1362.45 165.227Z" fill="#E8AD4F"/>
<path d="M1195.53 33.264C1188.75 33.264 1184.26 28.774 1184.26 22C1184.26 28.774 1179.77 33.264 1173 33.264C1179.77 33.264 1184.26 37.754 1184.26 44.528C1184.26 37.754 1188.75 33.264 1195.53 33.264Z" fill="#E8AD4F"/>
<path d="M1083.66 64.2627C1086.79 64.8237 1085.55 71.3929 1085.55 71.3929L1082.65 70.8735L1079.75 70.354C1079.75 70.354 1080.52 63.7018 1083.66 64.2627Z" fill="#E8AD4F"/>
<path d="M1091.26 76.7674C1091.75 73.5338 1087.94 70.1574 1082.74 69.2259C1077.53 68.2945 1072.92 70.1608 1072.42 73.3944C1071.93 76.628 1075.74 80.0044 1080.95 80.9359C1086.15 81.8673 1090.77 80.001 1091.26 76.7674Z" fill="#606B4A"/>
<path d="M1077.15 75.6861C1077.15 75.6861 1075.08 69.8926 1070.65 66.8506C1066.21 63.808 1051.91 64.9357 1050.52 61C1050.52 61 1046.31 79.8886 1074.95 85.9842L1077.15 75.6861Z" fill="#D63818"/>
<path d="M1086.42 77.3446C1086.42 77.3446 1090.1 72.5816 1095.21 71.2481C1100.32 69.9146 1113.51 75.9634 1116 72.7226C1116 72.7226 1114.37 92.0745 1085.44 87.8633L1086.42 77.3446Z" fill="#D63818"/>
<path d="M1082.04 74.8253C1075 73.5648 1070.35 77.0472 1070.35 77.0472L1075.12 90.7458L1079.49 91.5283L1083.86 92.3104L1092.46 81.0053C1092.46 81.0053 1089.08 76.0859 1082.04 74.8253Z" fill="#830409"/>
<path d="M1100.24 97.5948L1089.43 89.6582L1080.03 87.9768L1070.64 86.2954L1058.04 90.039L1056.75 91.6956L1056.99 94.7906L1060.45 97.6639L1075.18 95.3544L1079.14 93.8169L1082.44 96.655L1095.69 103.973L1099.83 102.46L1100.97 99.6112L1100.24 97.5948Z" fill="#830409"/>
<path d="M1062.74 74.8811C1062.74 74.8811 1057.38 73.7363 1051.66 80.1755C1045.94 86.6142 1043 87.943 1043 87.943C1043 87.943 1045.3 90.8154 1048.72 89.6296C1048.72 89.6296 1046.3 95.1309 1043.72 95.2071C1043.72 95.2071 1048.01 100.291 1054.71 96.6364C1061.42 92.9814 1078.57 87.9182 1078.57 87.9182L1068.82 75.4259L1062.74 74.8811Z" fill="#830409"/>
<path d="M1100.31 81.6067C1100.31 81.6067 1105.72 82.3907 1109.22 90.4798C1112.72 98.569 1115.11 100.853 1115.11 100.853C1115.11 100.853 1112.07 102.77 1109.19 100.455C1109.19 100.455 1109.84 106.506 1112.27 107.48C1112.27 107.48 1106.69 110.798 1101.43 105.001C1096.17 99.2033 1081.44 88.4329 1081.44 88.4329L1094.38 80.0016L1100.31 81.6067Z" fill="#830409"/>
<path d="M1101.58 86.0971C1101.58 86.0971 1105.99 88.7918 1107.23 95.3234C1107.23 95.3234 1103.07 95.9415 1099.76 92.563C1099.76 92.563 1101.77 94.6314 1102.87 98.0642C1102.87 98.0642 1097.81 99.5965 1092.73 93.4623L1101.58 86.0971Z" fill="#4C0F07"/>
<path d="M1102.63 88.7681C1103.16 85.3284 1099.67 81.8394 1094.84 80.9754C1090.02 80.1114 1085.68 82.1995 1085.16 85.6392C1084.63 89.079 1088.12 92.568 1092.94 93.432C1097.77 94.296 1102.1 92.2079 1102.63 88.7681Z" fill="#FFC999"/>
<path d="M1089.77 86.4655C1090.15 84.0058 1092.3 82.3421 1094.57 82.7486C1096.84 83.1556 1098.38 85.479 1098 87.9386C1097.63 90.3983 1095.48 92.0621 1093.21 91.6556C1090.94 91.249 1089.4 88.9252 1089.77 86.4655Z" fill="#606B4A"/>
<path d="M1091.48 86.771C1091.7 85.3308 1092.96 84.3566 1094.29 84.5949C1095.62 84.8332 1096.52 86.1939 1096.3 87.6336C1096.08 89.0739 1094.82 90.048 1093.49 89.8097C1092.16 89.5715 1091.26 88.2113 1091.48 86.771Z" fill="#FAF2DD"/>
<path d="M1092.58 86.9688C1092.7 86.1896 1093.38 85.6625 1094.1 85.7916C1094.82 85.9203 1095.31 86.6566 1095.19 87.4354C1095.07 88.2146 1094.39 88.7417 1093.67 88.6125C1092.95 88.4839 1092.47 87.748 1092.58 86.9688Z" fill="#23130A"/>
<path d="M1083.73 86.761C1083.73 86.761 1086.35 77.844 1091.61 75.3691C1096.87 72.8942 1101.23 75.3358 1102.81 75.0141C1102.81 75.0141 1101.92 77.3956 1100.25 77.7249C1100.25 77.7249 1103.17 78.4274 1104.82 77.9146C1104.82 77.9146 1103.42 84.2165 1096.23 83.4749C1089.05 82.7338 1085.61 87.1332 1083.73 86.761Z" fill="#FAF2DD"/>
<path d="M1060.2 78.6881C1060.2 78.6881 1055.22 79.7032 1052.1 85.4537C1052.1 85.4537 1055.86 87.4907 1059.99 85.4433C1059.99 85.4433 1057.48 86.701 1055.42 89.5691C1055.42 89.5691 1059.75 92.7803 1066.38 88.7446L1060.2 78.6881Z" fill="#4C0F07"/>
<path d="M1075.89 83.9807C1076.42 80.5409 1072.93 77.052 1068.1 76.1879C1063.28 75.3239 1058.94 77.412 1058.42 80.8518C1057.89 84.2916 1061.38 87.7805 1066.2 88.6445C1071.03 89.5085 1075.36 87.4205 1075.89 83.9807Z" fill="#FFC999"/>
<path d="M1071.26 83.1513C1071.64 80.6917 1070.1 78.3683 1067.83 77.9613C1065.56 77.5543 1063.41 79.2185 1063.04 81.6782C1062.66 84.1379 1064.2 86.4612 1066.47 86.8682C1068.74 87.2753 1070.89 85.611 1071.26 83.1513Z" fill="#606B4A"/>
<path d="M1069.56 82.8463C1069.78 81.4061 1068.88 80.0454 1067.55 79.8076C1066.22 79.5693 1064.96 80.5439 1064.74 81.9837C1064.52 83.424 1065.42 84.7841 1066.75 85.0224C1068.08 85.2607 1069.34 84.2866 1069.56 82.8463Z" fill="#FAF2DD"/>
<path d="M1068.45 82.6481C1068.57 81.8688 1068.08 81.133 1067.36 81.0043C1066.64 80.8756 1065.97 81.4027 1065.85 82.1815C1065.73 82.9607 1066.21 83.6965 1066.93 83.8252C1067.65 83.9544 1068.33 83.4273 1068.45 82.6481Z" fill="#23130A"/>
<path d="M1076.9 85.539C1076.9 85.539 1077.07 76.1827 1072.83 72.0063C1068.58 67.83 1063.73 68.6235 1062.32 67.7652C1062.32 67.7652 1062.46 70.3297 1063.95 71.2257C1063.95 71.2257 1060.97 70.8735 1059.56 69.8107C1059.56 69.8107 1059.02 76.2675 1066.04 78.0685C1073.06 79.8695 1075.01 85.2364 1076.9 85.539Z" fill="#FAF2DD"/>
<path d="M1101.92 109.891L1077.65 103.596L1052.8 101.096C1052.8 101.096 1049 105.234 1048.47 111.916C1047.95 118.599 1053.36 120.44 1054.32 122.735C1055.27 125.03 1056.14 134.476 1072.48 137.401C1088.82 140.326 1092.45 131.686 1094.04 129.847C1095.63 128.008 1101.3 128.15 1102.79 121.642C1104.29 115.133 1101.92 109.891 1101.92 109.891Z" fill="#FFC999"/>
<path d="M1097.18 117.692C1098.63 108.173 1090.36 98.7638 1078.71 96.677C1067.06 94.5902 1056.43 100.616 1054.97 110.135C1053.52 119.655 1061.79 129.064 1073.44 131.15C1085.1 133.237 1095.72 127.212 1097.18 117.692Z" stroke="black" stroke-width="0.5" stroke-miterlimit="10"/>
<path d="M1095.18 117.334C1096.49 108.716 1089.01 100.199 1078.46 98.3097C1067.91 96.4206 1058.29 101.875 1056.97 110.493C1055.66 119.11 1063.14 127.628 1073.69 129.517C1084.24 131.406 1093.86 125.951 1095.18 117.334Z" stroke="black" stroke-width="0.5" stroke-miterlimit="10"/>
<path d="M1094.23 117.163C1095.48 108.975 1088.37 100.882 1078.34 99.0872C1068.32 97.2922 1059.18 102.475 1057.92 110.663C1056.67 118.851 1063.78 126.944 1073.81 128.739C1083.83 130.534 1092.97 125.351 1094.23 117.163Z" stroke="black" stroke-width="0.5" stroke-miterlimit="10"/>
<path d="M1074.53 124.034C1071.93 123.57 1069.25 127.42 1069.25 127.42L1071.19 130.266L1073.81 128.737L1075.83 131.095L1078.51 129.079C1078.51 129.079 1077.12 124.498 1074.53 124.034Z" stroke="black" stroke-width="0.5" stroke-miterlimit="10"/>
<path d="M1068.14 121.393C1070.28 122.885 1069.25 127.42 1069.25 127.42L1065.78 128.027L1065.11 125.144L1061.96 125.362L1061.61 122.09C1061.61 122.09 1066 119.901 1068.14 121.393Z" stroke="black" stroke-width="0.5" stroke-miterlimit="10"/>
<path d="M1064.03 116.582C1062.98 114.336 1057.85 114.066 1057.85 114.066L1056.31 116.935L1059.23 118.251L1058.19 120.947L1061.61 122.09C1061.61 122.09 1065.08 118.828 1064.03 116.582Z" stroke="black" stroke-width="0.5" stroke-miterlimit="10"/>
<path d="M1063.38 111.016C1062.86 113.334 1057.85 114.066 1057.85 114.066L1055.66 111.368L1058.25 109.8L1056.59 107.228L1059.7 105.787C1059.7 105.787 1063.9 108.699 1063.38 111.016Z" stroke="black" stroke-width="0.5" stroke-miterlimit="10"/>
<path d="M1099.27 117.76C1100.72 108.24 1091.54 98.6675 1078.76 96.3783C1065.97 94.0892 1054.43 99.9505 1052.97 109.47C1051.52 118.99 1060.7 128.562 1073.49 130.852C1086.27 133.141 1097.82 127.279 1099.27 117.76Z" fill="#4C0F07"/>
<path d="M1096.03 117.18C1097.28 108.992 1089.38 100.758 1078.39 98.7891C1067.39 96.8201 1057.46 101.862 1056.21 110.05C1054.96 118.238 1062.86 126.472 1073.86 128.441C1084.85 130.41 1094.78 125.368 1096.03 117.18Z" fill="#E8AD4F"/>
<path d="M1095.04 117.002C1096.23 109.222 1088.72 101.399 1078.27 99.5276C1067.83 97.6568 1058.39 102.447 1057.2 110.227C1056.01 118.008 1063.52 125.831 1073.97 127.702C1084.42 129.573 1093.85 124.783 1095.04 117.002Z" fill="#830409"/>
<mask id="mask1_6_2" style="mask-type:luminance" maskUnits="userSpaceOnUse" x="1057" y="99" width="39" height="30">
<path d="M1095.04 117.002C1096.23 109.222 1088.72 101.399 1078.27 99.5278C1067.83 97.6569 1058.39 102.447 1057.2 110.227C1056.01 118.008 1063.52 125.831 1073.97 127.702C1084.42 129.573 1093.85 124.783 1095.04 117.002Z" fill="white"/>
</mask>
<g mask="url(#mask1_6_2)">
<path d="M1094.61 120.317L1097.78 118.543L1095.65 116.195L1098.1 114.43L1094.84 111.512L1094.6 111.566C1094.06 111.691 1089.27 112.867 1089.07 115.375C1088.96 116.78 1090.34 118.14 1091.66 119.106C1089.94 118.867 1087.94 118.867 1086.91 119.86C1085.76 120.97 1086.19 122.928 1086.74 124.375C1085.74 123.657 1084.39 122.859 1083.09 122.626C1082.56 122.531 1082.07 122.536 1081.63 122.638C1079.82 123.061 1079.01 125.071 1078.66 126.521C1077.94 125.108 1076.62 123.126 1074.72 122.785C1072.81 122.444 1070.97 123.859 1069.87 124.946C1069.97 123.451 1069.8 121.267 1068.21 120.235C1067.82 119.985 1067.36 119.81 1066.84 119.716C1065.53 119.483 1064.02 119.769 1062.86 120.1C1063.81 118.923 1064.8 117.216 1064.04 115.765C1063.36 114.467 1061.46 113.768 1059.77 113.395C1061.3 112.94 1063.01 112.134 1063.33 110.766C1063.89 108.323 1059.71 105.542 1059.23 105.233L1059.02 105.1L1055.06 106.725L1056.86 109.25L1054.14 110.73L1056.62 113.514L1054.96 116.386L1058.07 117.712L1057.01 120.305L1060.77 121.512L1061.2 124.769L1064.53 124.61L1065.27 127.404L1069.01 126.862L1071.14 129.7L1073.88 128.266L1076.04 130.576L1078.9 128.633L1082.28 130.45L1083.81 128.062L1086.92 129.375L1088.29 126.44L1092.22 126.611L1091.98 123.784L1095.33 123.615L1094.61 120.317Z" fill="#E8AD4F"/>
<path d="M1074.65 123.231C1077.35 123.715 1078.86 128.101 1078.86 128.101L1076.1 129.979L1073.92 127.993L1071.27 129.115L1069.21 126.373C1069.21 126.373 1071.94 122.748 1074.65 123.231Z" fill="#606B4A"/>
<path d="M1081.75 123.08C1079.19 123.676 1078.86 128.101 1078.86 128.101L1082.12 129.851L1083.77 127.862L1086.69 128.787L1088 125.973C1088 125.973 1084.31 122.485 1081.75 123.08Z" fill="#606B4A"/>
<path d="M1087.24 120.19C1088.94 118.54 1094.09 120.078 1094.09 120.078L1094.77 123.187L1091.8 123.601L1091.72 126.134L1088 125.972C1088 125.972 1085.53 121.84 1087.24 120.19Z" fill="#606B4A"/>
<path d="M1089.53 115.423C1089.35 117.682 1094.09 120.078 1094.09 120.078L1097.06 118.418L1095.65 116.195L1097.37 114.384L1094.72 112.008C1094.72 112.008 1089.7 113.164 1089.53 115.423Z" fill="#606B4A"/>
<path d="M1067.97 120.613C1070.21 122.069 1069.21 126.372 1069.21 126.372L1065.61 126.894L1064.53 124.609L1061.6 124.294L1061.19 121.172C1061.19 121.172 1065.72 119.157 1067.97 120.613Z" fill="#606B4A"/>
<path d="M1063.63 115.964C1062.51 113.808 1057.18 113.469 1057.18 113.469L1055.61 116.176L1057.86 117.908L1057.62 120.028L1061.19 121.172C1061.19 121.172 1064.76 118.12 1063.63 115.964Z" fill="#606B4A"/>
<path d="M1062.88 110.652C1062.37 112.851 1057.18 113.469 1057.18 113.469L1054.86 110.863L1056.94 109.336L1055.76 106.934L1058.99 105.611C1058.99 105.611 1063.39 108.452 1062.88 110.652Z" fill="#606B4A"/>
</g>
<path d="M1085.2 109.873L1077.06 107.471L1068.63 106.908C1068.63 106.908 1067.47 117.885 1075.25 119.278C1083.03 120.672 1085.2 109.873 1085.2 109.873Z" fill="#D63818"/>
<path d="M1075.71 116.313C1075.57 116.288 1075.47 116.156 1075.49 116.018L1076.33 110.522C1076.35 110.384 1076.48 110.293 1076.62 110.318C1076.76 110.343 1076.86 110.475 1076.84 110.612L1076 116.109C1075.97 116.247 1075.84 116.338 1075.71 116.313Z" fill="#67200B"/>
<path d="M1076.39 111.798C1087.52 113.79 1095.38 113.848 1095.38 113.848L1076.95 108.179L1057.81 107.122C1057.81 107.122 1065.27 109.807 1076.39 111.798Z" fill="#23130A"/>
<path d="M1077.44 104.94L1052.59 102.418C1052.59 102.418 1057.22 107.046 1076.59 110.514C1095.96 113.982 1101.72 111.213 1101.72 111.213L1077.44 104.94Z" fill="#FAF2DD"/>
<path d="M1080.89 82.3926C1078.54 81.9717 1077.6 89.2478 1077.6 89.2478L1079.78 89.6377L1081.96 90.0275C1081.96 90.0275 1083.24 82.8134 1080.89 82.3926Z" fill="#E8AD4F"/>
<path d="M1074.23 82.6881C1076.57 82.059 1077.6 89.2478 1077.6 89.2478L1075.43 89.8302L1073.26 90.4126C1073.26 90.4126 1071.88 83.3171 1074.23 82.6881Z" fill="#E8AD4F"/>
<path d="M1087.1 84.9933C1085.07 83.5807 1081.96 90.027 1081.96 90.027L1083.84 91.3348L1085.72 92.643C1085.72 92.643 1089.14 86.4059 1087.1 84.9933Z" fill="#E8AD4F"/>
<path d="M1073.69 92.5449C1073.22 95.6112 1075.3 98.538 1078.34 99.0817C1081.37 99.6255 1084.22 97.58 1084.68 94.5136C1085.15 91.4473 1083.07 88.5206 1080.03 87.9768C1077 87.4335 1074.16 89.4785 1073.69 92.5449Z" fill="#606B4A"/>
<path d="M1075.71 91.8538C1075.42 93.7873 1073.67 95.0856 1071.82 94.7539C1069.97 94.4222 1068.7 92.5859 1069 90.6523C1069.3 88.7188 1071.04 87.4206 1072.89 87.7523C1074.74 88.084 1076.01 89.9203 1075.71 91.8538Z" fill="#D63818"/>
<path d="M1073.76 91.505C1073.64 92.3152 1072.91 92.8594 1072.13 92.7203C1071.35 92.5811 1070.83 91.8114 1070.95 91.0012C1071.07 90.191 1071.8 89.6467 1072.58 89.7859C1073.36 89.9251 1073.89 90.6943 1073.76 91.505Z" fill="#23130A"/>
<path d="M1082.97 93.1544C1082.68 95.0879 1083.94 96.9242 1085.8 97.2559C1087.65 97.5876 1089.39 96.2894 1089.69 94.3559C1089.98 92.4224 1088.72 90.5861 1086.87 90.2544C1085.01 89.9227 1083.27 91.2209 1082.97 93.1544Z" fill="#D63818"/>
<path d="M1084.92 93.5033C1084.8 94.3135 1085.33 95.0832 1086.11 95.2223C1086.88 95.3615 1087.61 94.8172 1087.74 94.007C1087.86 93.1968 1087.33 92.4271 1086.55 92.288C1085.78 92.1488 1085.05 92.6931 1084.92 93.5033Z" fill="#23130A"/>
<path d="M1100.97 99.6112C1100.97 99.6112 1098.16 104.101 1092.16 100.132C1086.15 96.1641 1079.14 93.8164 1079.14 93.8164C1079.14 93.8164 1071.81 93.5977 1064.94 95.26C1058.07 96.9228 1056.75 91.6951 1056.75 91.6951C1056.75 91.6951 1049.13 96.0426 1051.53 104.339C1053.93 112.634 1071.11 105.865 1077.16 106.813C1083.17 108.024 1097.42 120.42 1102.15 113.402C1106.89 106.384 1100.97 99.6112 1100.97 99.6112Z" fill="#FFC999"/>
<path d="M1079.14 93.8169C1079.14 93.8169 1071.74 90.5132 1067.85 94.0423C1063.96 97.5715 1059.69 99.3248 1056.9 97.4776C1056.9 97.4776 1060.04 103.055 1065.76 102.066C1071.48 101.076 1071.27 93.6658 1079.14 93.8169Z" fill="#4C0F07"/>
<path d="M1079.14 93.8169C1079.14 93.8169 1087.13 93.2698 1089.77 97.967C1092.4 102.665 1095.92 105.812 1099.11 105.034C1099.11 105.034 1094.47 109.22 1089.36 106.29C1084.24 103.361 1086.64 96.4186 1079.14 93.8169Z" fill="#4C0F07"/>
<path fill-rule="evenodd" clip-rule="evenodd" d="M1276.12 18.2457C1275.93 18.3727 1275.69 18.2982 1275.58 18.0789C1275.47 17.8595 1275.54 17.5785 1275.73 17.4521L1282.75 12.7219C1282.88 12.6318 1283.04 12.6431 1283.17 12.7375L1290.74 17.8411C1290.93 17.9674 1291 18.2471 1290.89 18.4664C1290.78 18.6858 1290.54 18.761 1290.35 18.6354L1282.95 13.6489L1276.12 18.2457Z" fill="#731602"/>
<path fill-rule="evenodd" clip-rule="evenodd" d="M1276.12 7.23085C1275.93 7.35791 1275.69 7.28338 1275.58 7.06405C1275.47 6.84472 1275.54 6.56363 1275.73 6.43728L1282.75 1.70709C1282.88 1.61695 1283.04 1.62901 1283.17 1.72271L1290.74 6.82626C1290.93 6.95261 1291 7.23227 1290.89 7.45161C1290.78 7.67094 1290.54 7.74689 1290.35 7.62054L1282.95 2.63411L1276.12 7.23085Z" fill="#731602"/>
<path fill-rule="evenodd" clip-rule="evenodd" d="M1282.47 -10.5351C1282.47 -10.7913 1282.65 -11 1282.87 -11C1283.09 -11 1283.26 -10.792 1283.26 -10.5351V76.5164C1283.26 76.7733 1283.09 76.9806 1282.87 76.9806C1282.65 76.9806 1282.47 76.7733 1282.47 76.5164V-10.5351Z" fill="#731602"/>
<path fill-rule="evenodd" clip-rule="evenodd" d="M1276.12 29.3252C1275.93 29.4522 1275.69 29.3777 1275.58 29.1583C1275.47 28.939 1275.54 28.6579 1275.73 28.5316L1282.75 23.8014C1282.88 23.7112 1283.04 23.7233 1283.17 23.817L1290.74 28.9206C1290.93 29.0469 1291 29.3266 1290.89 29.5459C1290.78 29.7652 1290.54 29.8405 1290.35 29.7148L1282.95 24.7284L1276.12 29.3252Z" fill="#731602"/>
<path fill-rule="evenodd" clip-rule="evenodd" d="M1277.9 40.8142C1277.73 40.9739 1277.48 40.9441 1277.35 40.7475C1277.21 40.5516 1277.24 40.2627 1277.41 40.1023L1282.41 35.3728C1282.56 35.2315 1282.77 35.2386 1282.91 35.3763L1288.33 40.4919C1288.5 40.6516 1288.52 40.9405 1288.39 41.1364C1288.25 41.3331 1288 41.3629 1287.83 41.2032L1282.66 36.3182L1277.9 40.8142Z" fill="#731602"/>
<path fill-rule="evenodd" clip-rule="evenodd" d="M1278.41 56.5976C1278.25 56.7744 1278 56.7701 1277.85 56.5884C1277.7 56.4067 1277.7 56.1164 1277.86 55.9396L1282.53 50.6288C1282.68 50.4549 1282.92 50.4563 1283.07 50.6288L1288.13 56.3769C1288.28 56.5529 1288.29 56.8439 1288.13 57.0249C1287.98 57.2066 1287.73 57.2102 1287.58 57.0341L1282.8 51.5984L1278.41 56.5976Z" fill="#731602"/>
<path fill-rule="evenodd" clip-rule="evenodd" d="M1283.59 77.8111C1283.59 77.8111 1289.87 70.7484 1291.34 72.2781C1293.23 74.262 1284.92 77.3312 1283.59 77.8111Z" fill="#D68019"/>
<path fill-rule="evenodd" clip-rule="evenodd" d="M1281.89 79.0078C1281.89 79.0078 1273.6 82.2133 1274.08 84.4365C1274.71 87.3176 1280.9 80.1655 1281.89 79.0078Z" fill="#D68019"/>
<path fill-rule="evenodd" clip-rule="evenodd" d="M1283.8 78.6699C1283.8 78.6699 1292.52 78.8609 1292.63 81.15C1292.77 84.117 1285.03 79.4337 1283.8 78.6699Z" fill="#D68019"/>
<path fill-rule="evenodd" clip-rule="evenodd" d="M1281.87 78.1156C1281.87 78.1156 1274.07 73.5493 1273.06 75.5177C1271.75 78.068 1280.47 78.1205 1281.87 78.1156Z" fill="#D68019"/>
<path fill-rule="evenodd" clip-rule="evenodd" d="M1283.42 79.45C1283.42 79.45 1289.48 86.7817 1288.17 88.4895C1286.47 90.702 1283.84 81.0095 1283.42 79.45Z" fill="#D68019"/>
<path fill-rule="evenodd" clip-rule="evenodd" d="M1282.4 77.4689C1282.4 77.4689 1279.65 67.8055 1277.74 68.3663C1275.27 69.0924 1281.41 76.3183 1282.4 77.4689Z" fill="#D68019"/>
<path fill-rule="evenodd" clip-rule="evenodd" d="M1282.69 79.6935C1282.69 79.6935 1282.52 89.8722 1280.56 89.9978C1278.02 90.1604 1282.03 81.1358 1282.69 79.6935Z" fill="#D68019"/>
<path fill-rule="evenodd" clip-rule="evenodd" d="M1283.16 77.4462C1283.16 77.4462 1287.08 68.3478 1285.39 67.1717C1283.2 65.6477 1283.16 75.8151 1283.16 77.4462Z" fill="#D68019"/>
<path fill-rule="evenodd" clip-rule="evenodd" d="M1283.48 78.342C1283.48 78.342 1289.13 75.8811 1289.7 77.3206C1290.43 79.1853 1284.45 78.4669 1283.48 78.342Z" fill="#E6AF33"/>
<path fill-rule="evenodd" clip-rule="evenodd" d="M1282.13 78.5564C1282.13 78.5564 1276.12 77.9317 1275.9 79.4947C1275.62 81.5198 1281.23 78.973 1282.13 78.5564Z" fill="#E6AF33"/>
<path fill-rule="evenodd" clip-rule="evenodd" d="M1283.41 78.9532C1283.41 78.9532 1288.9 81.8712 1288.43 83.3561C1287.82 85.2811 1284.02 79.8333 1283.41 78.9532Z" fill="#E6AF33"/>
<path fill-rule="evenodd" clip-rule="evenodd" d="M1282.32 77.9843C1282.32 77.9843 1278.46 72.5904 1277.35 73.5146C1275.93 74.7127 1281.44 77.5392 1282.32 77.9843Z" fill="#E6AF33"/>
<path fill-rule="evenodd" clip-rule="evenodd" d="M1282.99 79.3279C1282.99 79.3279 1285.1 85.915 1283.87 86.5765C1282.27 87.4333 1282.89 80.448 1282.99 79.3279Z" fill="#E6AF33"/>
<path fill-rule="evenodd" clip-rule="evenodd" d="M1282.81 77.7436C1282.81 77.7436 1283.35 70.7399 1282.01 70.4844C1280.27 70.1529 1282.45 76.6967 1282.81 77.7436Z" fill="#E6AF33"/>
<path fill-rule="evenodd" clip-rule="evenodd" d="M1282.47 79.2463C1282.47 79.2463 1279.97 85.6445 1278.7 85.0944C1277.05 84.3818 1281.72 79.9504 1282.47 79.2463Z" fill="#E6AF33"/>
<path fill-rule="evenodd" clip-rule="evenodd" d="M1283.3 77.975C1283.3 77.975 1287.93 73.4642 1287.13 72.178C1286.11 70.5113 1283.68 76.9401 1283.3 77.975Z" fill="#E6AF33"/>
<path fill-rule="evenodd" clip-rule="evenodd" d="M1255.61 14.385C1262.73 9.99059 1269.84 5.52019 1276.94 1.13355C1277.6 0.724697 1278.86 1.98604 1279.75 3.95009C1280.65 5.91485 1280.83 7.83844 1280.17 8.24729C1273.07 12.6339 1265.9 16.9794 1258.78 21.3739L1255.61 14.385Z" fill="#731602"/>
<path fill-rule="evenodd" clip-rule="evenodd" d="M1255.61 14.385C1262.73 9.99059 1269.84 5.52019 1276.94 1.13355C1277.6 0.724697 1278.86 1.98604 1279.75 3.95009C1279.84 4.13677 1279.92 4.32274 1279.99 4.508C1279.93 4.61234 1279.86 4.69326 1279.77 4.74792C1272.67 9.13456 1265.5 13.48 1258.38 17.8745L1256.57 16.4875L1255.61 14.385Z" fill="#A52414"/>
<path fill-rule="evenodd" clip-rule="evenodd" d="M1255.62 14.2963C1256.29 13.8874 1257.55 15.1488 1258.44 17.1135C1259.33 19.0776 1259.52 21.0012 1258.85 21.4108C1258.19 21.8196 1256.93 20.5583 1256.04 18.5935C1255.15 16.6287 1254.96 14.7051 1255.62 14.2963Z" fill="#731602"/>
<path fill-rule="evenodd" clip-rule="evenodd" d="M1255.52 14.0606C1255.94 13.7994 1256.51 14.0294 1257.09 14.6129C1257.62 15.1431 1258.18 15.9771 1258.64 16.9879C1259.1 17.9987 1259.38 19.0052 1259.46 19.8137C1259.54 20.7038 1259.38 21.3845 1258.96 21.6457C1258.54 21.9062 1257.97 21.6762 1257.38 21.0928C1256.85 20.5625 1256.3 19.7292 1255.84 18.7177C1255.38 17.7062 1255.1 16.7004 1255.02 15.8912C1254.94 15.0026 1255.09 14.3211 1255.52 14.0606ZM1256.8 15.016C1256.36 14.5802 1255.97 14.3843 1255.73 14.5319C1255.49 14.6796 1255.41 15.1658 1255.48 15.8309C1255.55 16.5769 1255.81 17.5153 1256.24 18.4686C1256.68 19.4219 1257.19 20.2005 1257.68 20.6896C1258.12 21.1254 1258.51 21.322 1258.75 21.1737C1258.99 21.026 1259.07 20.5405 1259 19.8747C1258.93 19.1287 1258.67 18.1903 1258.24 17.2378C1257.8 16.2852 1257.28 15.5058 1256.8 15.016Z" fill="#E6AF33"/>
<path fill-rule="evenodd" clip-rule="evenodd" d="M1264.43 17.888C1264.6 17.0468 1264.29 15.5129 1263.57 13.9414C1262.86 12.3706 1261.95 11.2086 1261.26 10.8984L1258.77 12.4316C1259.47 12.7418 1260.38 13.9031 1261.09 15.4739C1261.8 17.0447 1262.11 18.5793 1261.94 19.4212L1264.43 17.888Z" fill="#E6AF33"/>
<path fill-rule="evenodd" clip-rule="evenodd" d="M1309.22 14.385C1302.11 9.99059 1295 5.52019 1287.9 1.13355C1287.23 0.724695 1285.97 1.98603 1285.08 3.9508C1284.19 5.91485 1284 7.83915 1284.67 8.24729C1291.77 12.6339 1298.94 16.9794 1306.05 21.3739L1309.22 14.385Z" fill="#731602"/>
<path fill-rule="evenodd" clip-rule="evenodd" d="M1309.22 14.385C1302.11 9.99059 1295 5.52019 1287.9 1.13355C1287.23 0.724695 1285.97 1.98603 1285.08 3.9508C1285 4.13748 1284.92 4.32345 1284.85 4.508C1284.91 4.61234 1284.98 4.69326 1285.07 4.74792C1292.17 9.13456 1299.33 13.48 1306.45 17.8745L1308.27 16.4875L1309.22 14.385Z" fill="#A52414"/>
<path fill-rule="evenodd" clip-rule="evenodd" d="M1309.21 14.2963C1308.55 13.8874 1307.29 15.1488 1306.4 17.1128C1305.51 19.0769 1305.32 21.0012 1305.98 21.41C1306.64 21.8189 1307.9 20.5576 1308.79 18.5935C1309.69 16.6287 1309.87 14.7052 1309.21 14.2963Z" fill="#731602"/>
<path fill-rule="evenodd" clip-rule="evenodd" d="M1309.32 14.0606C1308.9 13.7994 1308.32 14.0294 1307.74 14.6129C1307.21 15.1431 1306.65 15.9771 1306.2 16.9879C1305.74 17.9987 1305.46 19.0052 1305.38 19.8137C1305.29 20.7038 1305.45 21.3845 1305.87 21.6457C1306.3 21.9069 1306.87 21.6762 1307.45 21.0928C1307.98 20.5625 1308.54 19.7292 1309 18.7177C1309.46 17.7062 1309.73 16.7004 1309.81 15.892C1309.9 15.0026 1309.74 14.3211 1309.32 14.0606ZM1308.04 15.0168C1308.47 14.5802 1308.86 14.3843 1309.1 14.5319C1309.34 14.6796 1309.42 15.1658 1309.36 15.8309C1309.29 16.5769 1309.02 17.5153 1308.59 18.4686C1308.16 19.4219 1307.64 20.2005 1307.15 20.6896C1306.72 21.1261 1306.33 21.322 1306.09 21.1737C1305.85 21.026 1305.77 20.5405 1305.83 19.8747C1305.91 19.1287 1306.17 18.1903 1306.6 17.2378C1307.03 16.2852 1307.55 15.5058 1308.04 15.0168Z" fill="#E6AF33"/>
<path fill-rule="evenodd" clip-rule="evenodd" d="M1300.41 17.888C1300.24 17.0468 1300.55 15.5129 1301.26 13.9414C1301.97 12.3706 1302.89 11.2086 1303.58 10.8991L1306.06 12.4316C1305.37 12.7418 1304.46 13.9038 1303.74 15.4746C1303.03 17.0454 1302.72 18.5793 1302.89 19.4211L1300.41 17.888Z" fill="#E6AF33"/>
<path fill-rule="evenodd" clip-rule="evenodd" d="M1256.82 27.7267C1263.52 22.5273 1270.21 17.2541 1276.91 12.0632C1277.53 11.5798 1278.89 12.6886 1279.95 14.5391C1281 16.3902 1281.35 18.2826 1280.73 18.7667C1274.03 23.9568 1267.28 29.1129 1260.57 34.3123L1256.82 27.7267Z" fill="#731602"/>
<path fill-rule="evenodd" clip-rule="evenodd" d="M1256.82 27.7267C1263.52 22.5273 1270.21 17.2541 1276.91 12.0632C1277.53 11.5798 1278.89 12.6886 1279.95 14.5391C1280.05 14.7151 1280.14 14.8918 1280.23 15.0672C1280.18 15.1772 1280.11 15.2666 1280.03 15.3305C1273.34 20.5206 1266.58 25.6767 1259.87 30.8761L1257.94 29.707L1256.82 27.7267Z" fill="#A52414"/>
<path fill-rule="evenodd" clip-rule="evenodd" d="M1256.82 27.6365C1257.45 27.1524 1258.81 28.2611 1259.86 30.1123C1260.92 31.9635 1261.27 33.8559 1260.64 34.34C1260.02 34.8234 1258.66 33.7153 1257.6 31.8641C1256.55 30.0122 1256.2 28.1199 1256.82 27.6365Z" fill="#731602"/>
<path fill-rule="evenodd" clip-rule="evenodd" d="M1256.7 27.4143C1257.09 27.1056 1257.68 27.2681 1258.31 27.7813C1258.88 28.2476 1259.51 29.0121 1260.05 29.9647C1260.6 30.918 1260.96 31.8869 1261.11 32.6826C1261.27 33.5578 1261.17 34.2534 1260.77 34.5621C1260.37 34.8709 1259.78 34.7077 1259.15 34.1952C1258.58 33.7288 1257.96 32.9644 1257.41 32.0111C1256.87 31.0585 1256.51 30.0896 1256.36 29.2932C1256.2 28.4187 1256.3 27.7231 1256.7 27.4143ZM1258.05 28.2171C1257.58 27.8331 1257.17 27.6841 1256.95 27.8587C1256.72 28.034 1256.68 28.5259 1256.81 29.1811C1256.94 29.915 1257.28 30.8179 1257.79 31.7158C1258.31 32.6144 1258.89 33.3292 1259.42 33.7593C1259.89 34.1426 1260.29 34.2931 1260.52 34.1178C1260.74 33.9425 1260.78 33.4506 1260.66 32.7961C1260.52 32.0622 1260.18 31.1586 1259.67 30.2607C1259.16 29.3621 1258.58 28.6466 1258.05 28.2171Z" fill="#E6AF33"/>
<path fill-rule="evenodd" clip-rule="evenodd" d="M1265.89 30.1876C1265.98 29.3309 1265.55 27.8403 1264.7 26.3596C1263.86 24.8796 1262.85 23.8298 1262.13 23.6013L1259.8 25.4148C1260.51 25.6434 1261.52 26.6925 1262.36 28.1732C1263.21 29.6531 1263.65 31.1437 1263.55 32.0012L1265.89 30.1876Z" fill="#E6AF33"/>
<path fill-rule="evenodd" clip-rule="evenodd" d="M1309.5 28.8837C1303.01 23.3258 1296.53 17.6956 1290.06 12.1484C1289.45 11.6317 1288.05 12.6651 1286.92 14.4567C1285.79 16.249 1285.37 18.1208 1285.97 18.6375C1292.45 24.1847 1299 29.7021 1305.49 35.2592L1309.5 28.8837Z" fill="#731602"/>
<path fill-rule="evenodd" clip-rule="evenodd" d="M1309.5 28.8837C1303.01 23.3258 1296.53 17.6956 1290.06 12.1484C1289.45 11.6317 1288.05 12.6651 1286.92 14.4567C1286.81 14.6271 1286.71 14.7981 1286.62 14.9692C1286.66 15.0821 1286.73 15.1743 1286.81 15.2432C1293.29 20.7904 1299.83 26.307 1306.32 31.8649L1308.29 30.8016L1309.5 28.8837Z" fill="#A52414"/>
<path fill-rule="evenodd" clip-rule="evenodd" d="M1309.5 28.7928C1308.89 28.2761 1307.49 29.3103 1306.36 31.1018C1305.24 32.8934 1304.81 34.7652 1305.41 35.2826C1306.02 35.7994 1307.42 34.7659 1308.55 32.9743C1309.68 31.182 1310.1 29.3103 1309.5 28.7928Z" fill="#731602"/>
<path fill-rule="evenodd" clip-rule="evenodd" d="M1309.63 28.5778C1309.25 28.2477 1308.65 28.379 1308.01 28.8567C1307.41 29.2911 1306.76 30.0215 1306.18 30.9436C1305.6 31.8663 1305.2 32.8146 1305.02 33.6018C1304.82 34.4671 1304.89 35.167 1305.28 35.497C1305.67 35.8271 1306.26 35.6965 1306.91 35.2181C1307.5 34.7837 1308.15 34.0533 1308.73 33.1312C1309.31 32.2092 1309.72 31.2609 1309.89 30.4737C1310.09 29.6084 1310.02 28.9078 1309.63 28.5778ZM1308.25 29.3067C1308.74 28.949 1309.14 28.8212 1309.36 29.0079C1309.58 29.1953 1309.6 29.6893 1309.45 30.3367C1309.29 31.0621 1308.91 31.9465 1308.37 32.8161C1307.82 33.6856 1307.21 34.3684 1306.66 34.7695C1306.18 35.1265 1305.77 35.2543 1305.55 35.0676C1305.33 34.8809 1305.31 34.3869 1305.46 33.7388C1305.63 33.0134 1306 32.1297 1306.55 31.2601C1307.1 30.3899 1307.71 29.7078 1308.25 29.3067Z" fill="#E6AF33"/>
<path fill-rule="evenodd" clip-rule="evenodd" d="M1300.34 30.8498C1300.28 29.9888 1300.78 28.5238 1301.68 27.0907C1302.58 25.6576 1303.63 24.6638 1304.35 24.4743L1306.62 26.4128C1305.89 26.6023 1304.85 27.5961 1303.94 29.0292C1303.04 30.4623 1302.54 31.9273 1302.6 32.7883L1300.34 30.8498Z" fill="#E6AF33"/>
<path fill-rule="evenodd" clip-rule="evenodd" d="M1308.28 40.9555C1301.79 35.3984 1295.31 29.7674 1288.83 24.2202C1288.23 23.7028 1286.82 24.737 1285.7 26.5285C1284.57 28.3208 1284.14 30.1926 1284.75 30.7093C1291.23 36.2565 1297.77 41.7732 1304.27 47.331L1308.28 40.9555Z" fill="#731602"/>
<path fill-rule="evenodd" clip-rule="evenodd" d="M1308.28 40.9555C1301.79 35.3984 1295.31 29.7674 1288.83 24.2202C1288.23 23.7028 1286.82 24.737 1285.7 26.5285C1285.59 26.6989 1285.49 26.8699 1285.39 27.0403C1285.44 27.1539 1285.5 27.2461 1285.58 27.315C1292.06 32.8629 1298.61 38.3789 1305.1 43.9367L1307.07 42.8734L1308.28 40.9555Z" fill="#A52414"/>
<path fill-rule="evenodd" clip-rule="evenodd" d="M1308.27 40.8653C1307.67 40.3478 1306.27 41.382 1305.14 43.1736C1304.01 44.9652 1303.59 46.837 1304.19 47.3537C1304.79 47.8704 1306.2 46.837 1307.33 45.0447C1308.45 43.2538 1308.88 41.3813 1308.27 40.8653Z" fill="#731602"/>
<path fill-rule="evenodd" clip-rule="evenodd" d="M1308.41 40.6502C1308.02 40.3202 1307.43 40.4508 1306.78 40.9292C1306.19 41.3643 1305.53 42.094 1304.95 43.0161C1304.37 43.9381 1303.97 44.8864 1303.8 45.6736C1303.6 46.5396 1303.67 47.2401 1304.06 47.5695C1304.44 47.8988 1305.03 47.769 1305.68 47.2905C1306.27 46.8561 1306.93 46.1257 1307.51 45.2037C1308.09 44.2809 1308.49 43.3333 1308.67 42.5462C1308.87 41.6802 1308.8 40.9803 1308.41 40.6502ZM1307.03 41.3785C1307.51 41.0208 1307.92 40.893 1308.14 41.0804C1308.36 41.2678 1308.38 41.7611 1308.23 42.4092C1308.06 43.1346 1307.69 44.019 1307.14 44.8878C1306.59 45.7573 1305.98 46.4402 1305.44 46.8405C1304.95 47.1983 1304.54 47.326 1304.33 47.1386C1304.11 46.952 1304.09 46.4579 1304.24 45.8106C1304.4 45.0852 1304.78 44.2007 1305.32 43.3312C1305.87 42.4624 1306.48 41.7796 1307.03 41.3785Z" fill="#E6AF33"/>
<path fill-rule="evenodd" clip-rule="evenodd" d="M1299.12 42.9223C1299.05 42.0613 1299.55 40.5963 1300.45 39.1632C1301.36 37.73 1302.41 36.7363 1303.13 36.5468L1305.39 38.4853C1304.67 38.6748 1303.62 39.6685 1302.72 41.1017C1301.82 42.5348 1301.32 43.9998 1301.38 44.8608L1299.12 42.9223Z" fill="#E6AF33"/>
<path fill-rule="evenodd" clip-rule="evenodd" d="M1257.59 39.6686C1264.3 34.4692 1270.99 29.1953 1277.69 24.0051C1278.31 23.5218 1279.67 24.6298 1280.73 26.481C1281.78 28.3322 1282.13 30.2245 1281.51 30.7086C1274.81 35.8995 1268.05 41.0548 1261.35 46.2542L1257.59 39.6686Z" fill="#731602"/>
<path fill-rule="evenodd" clip-rule="evenodd" d="M1257.59 39.6686C1264.3 34.4692 1270.99 29.196 1277.69 24.0051C1278.31 23.5218 1279.67 24.6298 1280.73 26.481C1280.83 26.657 1280.92 26.833 1281.01 27.0091C1280.96 27.1191 1280.89 27.2085 1280.81 27.2731C1274.12 32.4633 1267.36 37.6193 1260.65 42.8187L1258.72 41.6497L1257.59 39.6686Z" fill="#A52414"/>
<path fill-rule="evenodd" clip-rule="evenodd" d="M1257.6 39.5784C1258.22 39.0951 1259.59 40.2031 1260.64 42.0543C1261.7 43.9055 1262.05 45.7978 1261.42 46.2819C1260.8 46.7653 1259.44 45.6573 1258.38 43.8061C1257.33 41.9542 1256.98 40.0618 1257.6 39.5784Z" fill="#731602"/>
<path fill-rule="evenodd" clip-rule="evenodd" d="M1257.47 39.3563C1257.87 39.0475 1258.46 39.21 1259.09 39.7232C1259.66 40.1896 1260.29 40.954 1260.83 41.9073C1261.37 42.8599 1261.74 43.8288 1261.88 44.6252C1262.05 45.5004 1261.95 46.196 1261.55 46.5048C1261.15 46.8135 1260.56 46.651 1259.93 46.1378C1259.36 45.6715 1258.73 44.907 1258.19 43.9537C1257.65 43.0011 1257.29 42.0323 1257.14 41.2358C1256.98 40.3606 1257.08 39.6643 1257.47 39.3563ZM1258.83 40.1591C1258.36 39.7758 1257.95 39.626 1257.73 39.8013C1257.5 39.9759 1257.46 40.4678 1257.59 41.123C1257.72 41.8569 1258.06 42.7605 1258.57 43.6584C1259.09 44.5563 1259.67 45.2718 1260.19 45.702C1260.67 46.0853 1261.07 46.235 1261.3 46.0597C1261.52 45.8851 1261.56 45.3925 1261.44 44.7381C1261.3 44.0041 1260.96 43.1012 1260.45 42.2026C1259.94 41.304 1259.36 40.5885 1258.83 40.1591Z" fill="#E6AF33"/>
<path fill-rule="evenodd" clip-rule="evenodd" d="M1266.67 42.1295C1266.76 41.2721 1266.32 39.7821 1265.48 38.3015C1264.64 36.8215 1263.63 35.7717 1262.91 35.5432L1260.58 37.3574C1261.29 37.5853 1262.3 38.6351 1263.14 40.1151C1263.99 41.5957 1264.42 43.0863 1264.33 43.9431L1266.67 42.1295Z" fill="#E6AF33"/>
<path fill-rule="evenodd" clip-rule="evenodd" d="M1307.39 53.4162C1300.9 47.8591 1294.42 42.2282 1287.94 36.681C1287.34 36.1635 1285.93 37.1977 1284.81 38.9893C1283.68 40.7808 1283.25 42.6533 1283.86 43.1694C1290.34 48.7173 1296.88 54.2339 1303.38 59.7918L1307.39 53.4162Z" fill="#731602"/>
<path fill-rule="evenodd" clip-rule="evenodd" d="M1307.39 53.4162C1300.9 47.8591 1294.42 42.2282 1287.94 36.681C1287.34 36.1635 1285.93 37.1977 1284.81 38.9893C1284.7 39.1596 1284.6 39.33 1284.5 39.5011C1284.55 39.6146 1284.61 39.7069 1284.69 39.7758C1291.17 45.3229 1297.72 50.8396 1304.21 56.3974L1306.18 55.3341L1307.39 53.4162Z" fill="#A52414"/>
<path fill-rule="evenodd" clip-rule="evenodd" d="M1307.38 53.3261C1306.78 52.8093 1305.38 53.8428 1304.25 55.6351C1303.12 57.4267 1302.7 59.2984 1303.3 59.8152C1303.9 60.3319 1305.31 59.2984 1306.44 57.5069C1307.56 55.7146 1307.99 53.8435 1307.38 53.3261Z" fill="#731602"/>
<path fill-rule="evenodd" clip-rule="evenodd" d="M1307.52 53.111C1307.13 52.7809 1306.54 52.9115 1305.89 53.39C1305.3 53.8244 1304.65 54.5548 1304.06 55.4775C1303.48 56.3996 1303.08 57.3479 1302.91 58.1351C1302.71 59.0003 1302.78 59.7009 1303.17 60.031C1303.55 60.361 1304.15 60.2304 1304.79 59.752C1305.38 59.3176 1306.04 58.5872 1306.62 57.6652C1307.2 56.7424 1307.6 55.7948 1307.78 55.0076C1307.98 54.1416 1307.9 53.4411 1307.52 53.111ZM1306.14 53.84C1306.62 53.4822 1307.03 53.3545 1307.25 53.5419C1307.47 53.7285 1307.49 54.2226 1307.34 54.8699C1307.17 55.5953 1306.8 56.4798 1306.25 57.3493C1305.7 58.2188 1305.09 58.9017 1304.55 59.302C1304.06 59.6597 1303.65 59.7875 1303.44 59.6001C1303.22 59.4134 1303.2 58.9194 1303.35 58.272C1303.51 57.5466 1303.89 56.6622 1304.43 55.7927C1304.98 54.9239 1305.59 54.241 1306.14 53.84Z" fill="#E6AF33"/>
<path fill-rule="evenodd" clip-rule="evenodd" d="M1298.23 55.3838C1298.16 54.5228 1298.66 53.0578 1299.56 51.6246C1300.46 50.1915 1301.51 49.1978 1302.24 49.0083L1304.5 50.9468C1303.78 51.1363 1302.73 52.13 1301.83 53.5631C1300.93 54.9963 1300.43 56.4613 1300.49 57.3223L1298.23 55.3838Z" fill="#E6AF33"/>
<path fill-rule="evenodd" clip-rule="evenodd" d="M1257.71 51.4806C1264.41 46.2812 1271.1 41.008 1277.8 35.8178C1278.42 35.3337 1279.78 36.4425 1280.84 38.2937C1281.89 40.1442 1282.24 42.0372 1281.62 42.5213C1274.92 47.7115 1268.17 52.8675 1261.46 58.0669L1257.71 51.4806Z" fill="#731602"/>
<path fill-rule="evenodd" clip-rule="evenodd" d="M1257.71 51.4806C1264.41 46.2819 1271.1 41.008 1277.8 35.8178C1278.42 35.3337 1279.78 36.4425 1280.84 38.2937C1280.94 38.4697 1281.03 38.6457 1281.12 38.8211C1281.07 38.9318 1281 39.0205 1280.92 39.0851C1274.23 44.2753 1267.47 49.4313 1260.76 54.6307L1258.84 53.4617L1257.71 51.4806Z" fill="#A52414"/>
<path fill-rule="evenodd" clip-rule="evenodd" d="M1257.71 51.3904C1258.34 50.907 1259.7 52.0158 1260.75 53.867C1261.81 55.7182 1262.16 57.6105 1261.53 58.0939C1260.91 58.5773 1259.55 57.4693 1258.49 55.6181C1257.44 53.7669 1257.09 51.8745 1257.71 51.3904Z" fill="#731602"/>
<path fill-rule="evenodd" clip-rule="evenodd" d="M1257.59 51.1682C1257.98 50.8595 1258.57 51.022 1259.2 51.5352C1259.77 52.0016 1260.4 52.766 1260.94 53.7193C1261.49 54.6719 1261.85 55.6408 1261.99 56.4372C1262.16 57.3124 1262.06 58.008 1261.66 58.3168C1261.26 58.6255 1260.67 58.463 1260.04 57.9505C1259.47 57.4841 1258.85 56.719 1258.3 55.7664C1257.76 54.8138 1257.4 53.8449 1257.25 53.0485C1257.09 52.1733 1257.19 51.477 1257.59 51.1682ZM1258.94 51.971C1258.47 51.587 1258.06 51.438 1257.84 51.6126C1257.61 51.7879 1257.57 52.2798 1257.7 52.935C1257.83 53.6689 1258.17 54.5718 1258.68 55.4704C1259.2 56.3683 1259.78 57.0831 1260.31 57.5133C1260.78 57.8966 1261.18 58.0463 1261.41 57.8717C1261.63 57.6964 1261.67 57.2045 1261.55 56.55C1261.41 55.8161 1261.07 54.9125 1260.56 54.0146C1260.05 53.116 1259.47 52.4012 1258.94 51.971Z" fill="#E6AF33"/>
<path fill-rule="evenodd" clip-rule="evenodd" d="M1266.78 53.9415C1266.87 53.0847 1266.44 51.5941 1265.59 50.1135C1264.75 48.6335 1263.74 47.5837 1263.03 47.3551L1260.69 49.1687C1261.4 49.3973 1262.41 50.4464 1263.25 51.927C1264.1 53.4077 1264.54 54.8983 1264.44 55.7551L1266.78 53.9415Z" fill="#E6AF33"/>
<path fill-rule="evenodd" clip-rule="evenodd" d="M1308.28 68.4735C1301.79 62.9164 1295.31 57.2854 1288.83 51.7382C1288.23 51.2208 1286.82 52.255 1285.7 54.0465C1284.57 55.8388 1284.14 57.7106 1284.75 58.2273C1291.23 63.7745 1297.77 69.2912 1304.27 74.8483L1308.28 68.4735Z" fill="#731602"/>
<path fill-rule="evenodd" clip-rule="evenodd" d="M1308.28 68.4735C1301.79 62.9163 1295.31 57.2854 1288.83 51.7382C1288.23 51.2215 1286.82 52.255 1285.7 54.0465C1285.59 54.2169 1285.49 54.3879 1285.39 54.559C1285.44 54.6719 1285.5 54.7649 1285.58 54.833C1292.06 60.3802 1298.61 65.8968 1305.1 71.454L1307.07 70.3907L1308.28 68.4735Z" fill="#A52414"/>
<path fill-rule="evenodd" clip-rule="evenodd" d="M1308.27 68.3833C1307.67 67.8659 1306.27 68.9001 1305.14 70.6916C1304.01 72.4832 1303.59 74.355 1304.19 74.8724C1304.79 75.3892 1306.2 74.355 1307.33 72.5634C1308.45 70.7726 1308.88 68.9008 1308.27 68.3833Z" fill="#731602"/>
<path fill-rule="evenodd" clip-rule="evenodd" d="M1308.41 68.1683C1308.02 67.8382 1307.43 67.9695 1306.78 68.4472C1306.19 68.8816 1305.53 69.612 1304.95 70.5341C1304.37 71.4561 1303.97 72.4044 1303.8 73.1916C1303.6 74.0569 1303.67 74.7575 1304.06 75.0875C1304.44 75.4176 1305.03 75.287 1305.68 74.8086C1306.27 74.3741 1306.93 73.6438 1307.51 72.721C1308.09 71.7982 1308.49 70.8506 1308.67 70.0635C1308.87 69.1989 1308.8 68.4983 1308.41 68.1683ZM1307.03 68.8972C1307.51 68.5402 1307.92 68.4117 1308.14 68.5991C1308.36 68.7858 1308.38 69.2798 1308.23 69.9272C1308.06 70.6533 1307.69 71.537 1307.14 72.4065C1306.59 73.2761 1305.98 73.9589 1305.44 74.3592C1304.95 74.717 1304.54 74.8448 1304.33 74.6574C1304.11 74.47 1304.09 73.976 1304.24 73.3286C1304.4 72.6032 1304.78 71.7195 1305.32 70.8499C1305.87 69.9804 1306.48 69.2976 1307.03 68.8972Z" fill="#E6AF33"/>
<path fill-rule="evenodd" clip-rule="evenodd" d="M1299.12 70.4404C1299.05 69.5794 1299.55 68.1143 1300.45 66.6812C1301.36 65.2481 1302.4 64.2543 1303.13 64.0648L1305.39 66.0033C1304.67 66.1928 1303.62 67.1866 1302.72 68.6197C1301.82 70.0528 1301.32 71.5179 1301.38 72.3789L1299.12 70.4404Z" fill="#E6AF33"/>
<path fill-rule="evenodd" clip-rule="evenodd" d="M1258.83 70.1927C1264.92 64.0485 1270.99 57.832 1277.07 51.6985C1277.64 51.1264 1279.11 52.0264 1280.35 53.7073C1281.6 55.3888 1282.15 57.2144 1281.59 57.7858C1275.51 63.92 1269.36 70.0294 1263.27 76.1735L1258.83 70.1927Z" fill="#731602"/>
<path fill-rule="evenodd" clip-rule="evenodd" d="M1258.83 70.1927C1264.92 64.0478 1270.99 57.832 1277.07 51.6985C1277.64 51.1271 1279.11 52.0264 1280.35 53.7073C1280.47 53.867 1280.58 54.0281 1280.69 54.1892C1280.65 54.3063 1280.6 54.4043 1280.52 54.4802C1274.44 60.6144 1268.3 66.7238 1262.21 72.8679L1260.17 71.992L1258.83 70.1927Z" fill="#A52414"/>
<path fill-rule="evenodd" clip-rule="evenodd" d="M1258.83 70.1025C1259.4 69.5311 1260.87 70.4304 1262.11 72.112C1263.36 73.7928 1263.91 75.6192 1263.34 76.1906C1262.78 76.762 1261.31 75.8626 1260.06 74.1811C1258.81 72.5002 1258.26 70.6739 1258.83 70.1025Z" fill="#731602"/>
<path fill-rule="evenodd" clip-rule="evenodd" d="M1258.68 69.9009C1259.04 69.5353 1259.64 69.6106 1260.32 70.0265C1260.94 70.4049 1261.64 71.0714 1262.29 71.9366C1262.93 72.8019 1263.39 73.709 1263.62 74.4778C1263.88 75.3217 1263.86 76.0273 1263.49 76.3914C1263.13 76.7563 1262.53 76.6817 1261.85 76.2658C1261.23 75.8875 1260.53 75.2209 1259.89 74.3557C1259.25 73.4904 1258.78 72.5826 1258.55 71.8145C1258.29 70.9706 1258.32 70.2657 1258.68 69.9009ZM1260.11 70.4978C1259.6 70.1869 1259.18 70.0975 1258.98 70.3041C1258.77 70.5106 1258.79 71.0047 1258.98 71.6364C1259.19 72.3448 1259.63 73.1902 1260.23 74.0065C1260.84 74.822 1261.49 75.446 1262.06 75.7952C1262.57 76.1061 1262.99 76.1955 1263.19 75.989C1263.4 75.7817 1263.38 75.2877 1263.19 74.6559C1262.98 73.9482 1262.54 73.1022 1261.94 72.2866C1261.33 71.4703 1260.68 70.8471 1260.11 70.4978Z" fill="#E6AF33"/>
<path fill-rule="evenodd" clip-rule="evenodd" d="M1268.1 71.2992C1268.1 70.4354 1267.5 69.0215 1266.51 67.6771C1265.51 66.3327 1264.4 65.4397 1263.66 65.3184L1261.54 67.462C1262.27 67.5834 1263.39 68.4756 1264.38 69.8207C1265.38 71.1651 1265.98 72.579 1265.97 73.4429L1268.1 71.2992Z" fill="#E6AF33"/>
<path fill-rule="evenodd" clip-rule="evenodd" d="M1224.13 219.13H1255.05V215.854C1254.39 213.225 1252.21 211.296 1249.64 211.296C1248.78 211.296 1247.97 211.508 1247.24 211.888C1246.6 207.97 1243.51 205 1239.8 205C1236.01 205 1232.88 208.08 1232.31 212.106C1231.49 211.591 1230.55 211.296 1229.54 211.296C1226.96 211.296 1224.79 213.225 1224.13 215.854V219.13Z" fill="#731602"/>
<path fill-rule="evenodd" clip-rule="evenodd" d="M1224.37 219.515C1224.16 219.515 1224 219.35 1224 219.146C1224 218.941 1224.17 218.776 1224.37 218.776L1254.81 218.819C1255.01 218.819 1255.18 218.985 1255.18 219.189C1255.18 219.393 1255.01 219.559 1254.81 219.559L1224.37 219.515Z" fill="#A52414"/>
<path d="M1255.05 219.144H1224.13V256.065H1255.05V219.144Z" fill="#731602"/>
<path fill-rule="evenodd" clip-rule="evenodd" d="M1231.75 216.639C1235.27 215.868 1238.74 218.095 1239.51 221.612C1240.28 225.128 1238.06 228.604 1234.54 229.374C1231.03 230.145 1227.56 227.918 1226.79 224.401C1226.02 220.885 1228.24 217.409 1231.75 216.639Z" fill="#E6AF33"/>
<path fill-rule="evenodd" clip-rule="evenodd" d="M1231.68 216.308C1233.53 215.903 1235.37 216.287 1236.84 217.233C1238.32 218.179 1239.44 219.69 1239.84 221.54C1240.25 223.389 1239.86 225.227 1238.92 226.705C1237.97 228.183 1236.46 229.299 1234.61 229.705C1232.77 230.11 1230.93 229.726 1229.45 228.78C1227.98 227.834 1226.86 226.323 1226.46 224.473C1226.05 222.624 1226.43 220.786 1227.38 219.308C1228.33 217.83 1229.83 216.714 1231.68 216.308ZM1236.48 217.802C1235.15 216.949 1233.49 216.604 1231.83 216.969C1230.16 217.334 1228.8 218.341 1227.95 219.672C1227.1 221.004 1226.75 222.662 1227.12 224.33C1227.48 225.997 1228.49 227.358 1229.82 228.211C1231.15 229.064 1232.8 229.409 1234.47 229.043C1236.14 228.679 1237.5 227.672 1238.35 226.34C1239.2 225.009 1239.55 223.351 1239.18 221.683C1238.82 220.016 1237.81 218.655 1236.48 217.802Z" fill="#D68019"/>
<path d="M1234.47 220.936L1231.08 221.68L1231.82 225.073L1235.21 224.33L1234.47 220.936Z" fill="#A52414"/>
<path fill-rule="evenodd" clip-rule="evenodd" d="M1231.01 221.351L1234.4 220.608C1234.58 220.569 1234.76 220.684 1234.8 220.867L1235.55 224.261C1235.58 224.443 1235.47 224.623 1235.29 224.663L1231.9 225.406C1231.71 225.445 1231.53 225.329 1231.49 225.147L1230.75 221.753C1230.71 221.57 1230.83 221.39 1231.01 221.351ZM1234.21 221.34L1231.48 221.939L1232.08 224.673L1234.81 224.074L1234.21 221.34Z" fill="#D68019"/>
<path fill-rule="evenodd" clip-rule="evenodd" d="M1231.92 217.396C1233.47 217.056 1235.01 217.377 1236.24 218.17C1237.48 218.963 1238.42 220.228 1238.75 221.777L1238.75 221.778C1239.09 223.327 1238.77 224.867 1237.98 226.105C1237.19 227.342 1235.92 228.277 1234.38 228.617H1234.38C1232.83 228.956 1231.29 228.635 1230.05 227.843C1228.82 227.05 1227.88 225.785 1227.54 224.236C1227.2 222.687 1227.52 221.146 1228.32 219.908C1229.11 218.671 1230.37 217.736 1231.92 217.396ZM1236.15 218.313C1234.95 217.543 1233.46 217.232 1231.96 217.561C1230.45 217.89 1229.23 218.799 1228.46 220C1227.69 221.201 1227.38 222.696 1227.71 224.2C1228.04 225.703 1228.94 226.932 1230.14 227.701C1231.34 228.47 1232.83 228.781 1234.34 228.453L1234.34 228.452C1235.84 228.121 1237.07 227.214 1237.84 226.014C1238.61 224.814 1238.92 223.32 1238.59 221.818L1238.59 221.809C1238.26 220.308 1237.35 219.081 1236.15 218.313Z" fill="#D68019"/>
<path fill-rule="evenodd" clip-rule="evenodd" d="M1232.84 218.366C1233.54 218.499 1234.09 218.713 1234.71 219.09C1234.73 219.101 1234.8 219.148 1234.81 219.152C1235.34 219.504 1235.68 219.848 1236.04 220.373C1236.15 220.538 1236.24 220.695 1236.33 220.868C1236.7 221.568 1236.88 222.151 1237.18 222.851C1237.29 223.09 1237.43 223.658 1237.72 223.478C1238.07 223.208 1237.98 222.683 1237.95 222.253C1237.82 221.238 1237.46 220.574 1236.81 219.768C1236.8 219.739 1236.53 219.46 1236.49 219.419C1236.06 218.996 1235.68 218.719 1235.13 218.465C1234.84 218.341 1234.6 218.267 1234.3 218.201C1233.83 218.103 1233.43 218.133 1232.97 218.208C1232.9 218.224 1232.78 218.266 1232.84 218.366ZM1233.28 218.387H1233.28H1233.28Z" fill="#F7E9C9"/>
<path fill-rule="evenodd" clip-rule="evenodd" d="M1239.93 213.283L1240.6 215.467L1242.79 216.138L1240.6 216.809L1239.93 218.992L1239.26 216.809L1237.08 216.138L1239.26 215.467L1239.93 213.283Z" fill="white"/>
<path fill-rule="evenodd" clip-rule="evenodd" d="M1244.16 216.745L1244.6 218.232L1246.07 218.707L1244.58 219.141L1244.11 220.615L1243.67 219.129L1242.2 218.653L1243.69 218.219L1244.16 216.745Z" fill="white"/>
<path fill-rule="evenodd" clip-rule="evenodd" d="M1240.68 221.979C1243.94 220.463 1247.82 221.881 1249.33 225.146C1250.85 228.412 1249.43 232.288 1246.17 233.804C1242.9 235.32 1239.03 233.902 1237.52 230.637C1236 227.37 1237.42 223.495 1240.68 221.979Z" fill="#E6AF33"/>
<path fill-rule="evenodd" clip-rule="evenodd" d="M1240.54 221.671C1242.26 220.875 1244.13 220.849 1245.78 221.452C1247.43 222.055 1248.84 223.287 1249.64 225.005C1250.44 226.722 1250.46 228.599 1249.86 230.246C1249.26 231.895 1248.03 233.314 1246.31 234.111L1246.31 234.112C1244.59 234.908 1242.72 234.933 1241.07 234.33C1239.42 233.727 1238.01 232.495 1237.21 230.778L1237.21 230.776C1236.41 229.059 1236.39 227.183 1236.99 225.536C1237.59 223.887 1238.82 222.469 1240.54 221.671ZM1245.55 222.087C1244.06 221.543 1242.37 221.566 1240.82 222.286C1239.28 223.004 1238.17 224.282 1237.62 225.767C1237.08 227.246 1237.1 228.932 1237.81 230.475C1237.82 230.488 1237.83 230.5 1237.83 230.514C1238.55 232.052 1239.82 233.155 1241.3 233.696C1242.78 234.238 1244.46 234.217 1246 233.507C1246.02 233.5 1246.03 233.495 1246.04 233.489C1247.58 232.769 1248.68 231.496 1249.22 230.017C1249.77 228.531 1249.74 226.838 1249.02 225.289C1248.31 223.74 1247.03 222.63 1245.55 222.087Z" fill="#D68019"/>
<path d="M1244.28 225.585L1241.13 227.049L1242.59 230.2L1245.74 228.736L1244.28 225.585Z" fill="#A52414"/>
<path fill-rule="evenodd" clip-rule="evenodd" d="M1240.98 226.741L1244.13 225.277C1244.3 225.2 1244.5 225.274 1244.57 225.443L1246.04 228.594C1246.11 228.763 1246.04 228.964 1245.87 229.042L1242.72 230.506C1242.55 230.583 1242.35 230.509 1242.27 230.34L1240.81 227.189C1240.73 227.019 1240.81 226.818 1240.98 226.741ZM1244.1 226.033L1241.57 227.211L1242.74 229.75L1245.28 228.572L1244.1 226.033Z" fill="#D68019"/>
<path fill-rule="evenodd" clip-rule="evenodd" d="M1241.01 222.682C1242.44 222.014 1244.02 221.992 1245.4 222.498C1246.78 223.002 1247.96 224.034 1248.63 225.473C1249.3 226.912 1249.32 228.485 1248.81 229.865C1248.31 231.245 1247.28 232.433 1245.84 233.101C1244.4 233.769 1242.83 233.79 1241.45 233.285C1240.07 232.78 1238.89 231.748 1238.22 230.31C1237.55 228.872 1237.53 227.299 1238.03 225.918C1238.54 224.537 1239.57 223.35 1241.01 222.682ZM1245.34 222.656C1244 222.166 1242.47 222.187 1241.08 222.835C1239.68 223.483 1238.68 224.636 1238.19 225.975C1237.7 227.316 1237.72 228.842 1238.37 230.239C1239.02 231.635 1240.17 232.636 1241.51 233.126C1242.85 233.617 1244.37 233.596 1245.77 232.947C1247.16 232.3 1248.16 231.147 1248.65 229.807C1249.14 228.467 1249.12 226.94 1248.48 225.544C1247.83 224.148 1246.68 223.146 1245.34 222.656Z" fill="#D68019"/>
<path fill-rule="evenodd" clip-rule="evenodd" d="M1242.11 223.429C1242.83 223.406 1243.41 223.496 1244.1 223.729C1244.12 223.736 1244.2 223.767 1244.21 223.769C1244.8 223.997 1245.21 224.257 1245.67 224.692C1245.82 224.829 1245.94 224.963 1246.07 225.111C1246.58 225.715 1246.88 226.246 1247.32 226.863C1247.48 227.073 1247.75 227.596 1247.98 227.358C1248.27 227.017 1248.07 226.525 1247.94 226.112C1247.6 225.15 1247.11 224.579 1246.3 223.934C1246.28 223.908 1245.96 223.694 1245.91 223.663C1245.39 223.343 1244.96 223.155 1244.38 223.027C1244.07 222.968 1243.82 222.948 1243.5 222.95C1243.03 222.956 1242.64 223.073 1242.21 223.245C1242.14 223.277 1242.04 223.342 1242.11 223.429ZM1242.55 223.353L1242.55 223.352L1242.55 223.353Z" fill="#F7E9C9"/>
<path fill-rule="evenodd" clip-rule="evenodd" d="M1224.13 219.144L1239.59 230.654L1255.05 219.144V256.066H1224.13V219.144Z" fill="#A52414"/>
<path fill-rule="evenodd" clip-rule="evenodd" d="M1255.05 255.978V256.066H1254.23L1239.41 247.507L1224.6 256.066H1224.13V255.776L1239.29 247.016C1239.37 246.97 1239.46 246.973 1239.54 247.016L1255.05 255.978Z" fill="#A52414"/>
<path fill-rule="evenodd" clip-rule="evenodd" d="M1224.42 256.266C1224.31 256.335 1224.16 256.294 1224.09 256.175C1224.02 256.058 1224.06 255.907 1224.18 255.839L1239.46 247.012C1239.53 246.966 1239.63 246.97 1239.7 247.014L1255 255.852C1255.12 255.919 1255.16 256.07 1255.09 256.188C1255.02 256.306 1254.87 256.347 1254.75 256.279L1239.58 247.51L1224.42 256.266Z" fill="#731602"/>
<path fill-rule="evenodd" clip-rule="evenodd" d="M1239.34 230.785C1239.34 230.649 1239.45 230.539 1239.59 230.539C1239.72 230.539 1239.83 230.649 1239.83 230.785V247.183C1239.83 247.319 1239.72 247.429 1239.59 247.429C1239.45 247.429 1239.34 247.319 1239.34 247.183V230.785Z" fill="#731602"/>
<path fill-rule="evenodd" clip-rule="evenodd" d="M1239.59 237.708C1241.09 237.708 1242.32 236.48 1242.32 234.974C1242.32 233.47 1241.09 232.242 1239.59 232.242C1238.08 232.242 1236.86 233.47 1236.86 234.974C1236.86 236.48 1238.08 237.708 1239.59 237.708Z" fill="#E6AF33"/>
<path fill-rule="evenodd" clip-rule="evenodd" d="M1242.06 235.821C1241.56 236.452 1240.79 236.857 1239.92 236.857C1239.02 236.857 1238.21 236.415 1237.72 235.735C1237.39 235.283 1237.19 234.726 1237.19 234.123C1237.19 233.931 1237.21 233.743 1237.25 233.562C1237 233.974 1236.86 234.458 1236.86 234.974C1236.86 235.33 1236.93 235.669 1237.05 235.981C1237.45 236.992 1238.44 237.707 1239.59 237.707C1240.79 237.707 1241.81 236.934 1242.17 235.86C1242.21 235.755 1242.24 235.646 1242.26 235.536C1242.2 235.636 1242.14 235.731 1242.06 235.821Z" fill="#D68019"/>
<path d="M1253.3 221.454L1248.92 258.114L1279.61 261.793L1284 225.133L1253.3 221.454Z" fill="#C02817"/>
<path fill-rule="evenodd" clip-rule="evenodd" d="M1279.62 261.705L1279.61 261.793L1278.8 261.695L1265.11 251.434L1249.38 258.17L1248.92 258.114L1248.95 257.827L1265.05 250.932C1265.13 250.897 1265.22 250.911 1265.29 250.961L1279.62 261.705Z" fill="#A52414"/>
<path fill-rule="evenodd" clip-rule="evenodd" d="M1249.02 258.33C1248.9 258.383 1248.75 258.324 1248.7 258.199C1248.64 258.074 1248.7 257.928 1248.83 257.876L1265.05 250.928C1265.13 250.891 1265.23 250.909 1265.3 250.967L1279.43 261.557C1279.54 261.638 1279.56 261.793 1279.48 261.901C1279.4 262.01 1279.24 262.032 1279.13 261.951L1265.11 251.439L1249.02 258.33Z" fill="#731602"/>
<path fill-rule="evenodd" clip-rule="evenodd" d="M1266.93 234.812C1266.95 234.677 1267.07 234.581 1267.2 234.597C1267.34 234.613 1267.43 234.735 1267.42 234.87L1265.47 251.151C1265.45 251.286 1265.33 251.382 1265.2 251.366C1265.06 251.35 1264.97 251.229 1264.98 251.094L1266.93 234.812Z" fill="#731602"/>
<path fill-rule="evenodd" clip-rule="evenodd" d="M1253.3 221.454L1284 225.133L1283.61 228.385C1282.64 230.917 1280.26 232.574 1277.7 232.268C1276.85 232.166 1276.07 231.858 1275.39 231.394C1274.29 235.208 1270.87 237.789 1267.18 237.347C1263.42 236.897 1260.67 233.465 1260.59 229.401C1259.72 229.816 1258.75 229.996 1257.74 229.877C1255.18 229.57 1253.26 227.396 1252.91 224.707L1253.3 221.454Z" fill="#C02817"/>
<path fill-rule="evenodd" clip-rule="evenodd" d="M1283.38 228.298C1283.43 228.17 1283.57 228.107 1283.7 228.154C1283.83 228.203 1283.89 228.346 1283.84 228.474C1283.33 229.804 1282.45 230.902 1281.35 231.623C1280.27 232.329 1278.99 232.673 1277.67 232.514C1277.23 232.461 1276.81 232.356 1276.41 232.205C1276.1 232.089 1275.81 231.946 1275.53 231.778C1274.93 233.616 1273.8 235.155 1272.36 236.194C1270.87 237.278 1269.04 237.82 1267.15 237.593C1265.22 237.361 1263.55 236.371 1262.34 234.919C1261.2 233.537 1260.48 231.735 1260.36 229.772C1260 229.916 1259.62 230.023 1259.23 230.087C1258.74 230.17 1258.23 230.185 1257.71 230.122C1256.39 229.964 1255.23 229.328 1254.35 228.386C1253.45 227.426 1252.85 226.15 1252.67 224.738C1252.65 224.602 1252.75 224.479 1252.88 224.462C1253.02 224.445 1253.14 224.54 1253.16 224.675C1253.33 225.984 1253.88 227.164 1254.71 228.049C1255.51 228.907 1256.57 229.486 1257.77 229.631C1258.24 229.687 1258.71 229.674 1259.15 229.599C1259.62 229.522 1260.06 229.379 1260.49 229.178C1260.52 229.164 1260.55 229.155 1260.59 229.154C1260.72 229.151 1260.84 229.26 1260.84 229.396C1260.88 231.385 1261.58 233.218 1262.72 234.602C1263.85 235.96 1265.41 236.885 1267.21 237.101C1268.97 237.312 1270.67 236.806 1272.07 235.793C1273.5 234.759 1274.61 233.201 1275.15 231.338C1275.16 231.309 1275.17 231.281 1275.19 231.255C1275.27 231.142 1275.42 231.113 1275.53 231.19C1275.86 231.415 1276.21 231.601 1276.58 231.742C1276.95 231.879 1277.33 231.974 1277.73 232.022C1278.93 232.167 1280.1 231.853 1281.08 231.208C1282.09 230.545 1282.91 229.529 1283.38 228.298Z" fill="#731602"/>
<path fill-rule="evenodd" clip-rule="evenodd" d="M1267.28 235.06C1268.77 235.24 1269.84 236.6 1269.66 238.099C1269.48 239.598 1268.12 240.667 1266.63 240.488C1265.13 240.308 1264.06 238.948 1264.24 237.449C1264.42 235.951 1265.78 234.881 1267.28 235.06Z" fill="#E6AF33"/>
<path fill-rule="evenodd" clip-rule="evenodd" d="M1269.62 238.353C1269.07 239.21 1268.07 239.725 1266.99 239.597C1266.86 239.581 1266.74 239.557 1266.61 239.524C1265.32 239.18 1264.44 237.926 1264.61 236.558C1264.61 236.542 1264.61 236.525 1264.61 236.508C1264.62 236.439 1264.63 236.371 1264.65 236.304C1264.61 236.358 1264.58 236.415 1264.55 236.472C1264.39 236.767 1264.28 237.096 1264.24 237.449C1264.07 238.904 1265.07 240.23 1266.5 240.469C1266.54 240.476 1266.58 240.482 1266.63 240.487C1268.04 240.657 1269.33 239.716 1269.62 238.353Z" fill="#D68019"/>
<path fill-rule="evenodd" clip-rule="evenodd" d="M523.981 16.296C537.207 19.0428 548.795 17.0968 547.047 25.5145C545.299 33.9323 531.79 42.6719 518.564 39.9251C505.338 37.1785 497.404 23.9851 499.152 15.568C500.9 7.15006 510.755 13.5494 523.981 16.296Z" fill="#E6AF33"/>
<path fill-rule="evenodd" clip-rule="evenodd" d="M502.568 15.3854C502.439 15.243 502.444 15.0087 502.58 14.8616C502.715 14.7153 502.93 14.7121 503.059 14.8545C503.099 14.8988 516.705 30.2569 544.063 24.5404C544.248 24.502 544.422 24.6336 544.45 24.8347C544.478 25.0358 544.351 25.2309 544.165 25.2692C516.455 31.0589 502.609 15.4306 502.568 15.3854Z" fill="#3C1500"/>
<path fill-rule="evenodd" clip-rule="evenodd" d="M533.336 22.6227C534.725 15.9329 531.271 9.55909 525.623 8.38609C519.975 7.2131 514.27 11.6848 512.881 18.3747C512.787 18.8241 512.716 19.2717 512.666 19.717C517.346 22.1376 524.104 24.3609 532.937 24.136C533.094 23.6459 533.228 23.1405 533.336 22.6227Z" fill="#E6AF33"/>
<path fill-rule="evenodd" clip-rule="evenodd" d="M533.567 21.126C526.446 24.9768 515.546 20.9724 514.996 13.307C514.885 13.4716 514.777 13.6397 514.672 13.8103C513.849 15.1552 513.228 16.695 512.879 18.3737C512.786 18.8231 512.715 19.2708 512.665 19.7161C517.345 22.1367 524.103 24.3599 532.936 24.1351C533.094 23.6451 533.228 23.1404 533.335 22.6219C533.44 22.1215 533.516 21.6223 533.567 21.126Z" fill="#D68019"/>
<path fill-rule="evenodd" clip-rule="evenodd" d="M525.667 9.45331C526.591 10.0197 527.282 10.6715 528.019 11.5211C528.788 12.4461 529.31 13.3022 529.837 14.4372C529.857 14.458 530.047 14.8941 530.078 14.9636C530.612 16.1929 530.905 17.2584 531.362 18.4716C531.495 18.8066 531.643 19.4987 532.004 19.2462C532.492 18.8468 532.36 18.0378 532.31 17.4345C532.121 15.8982 531.642 14.8308 530.939 13.5679C530.739 13.2257 530.534 12.9022 530.314 12.5787C529.583 11.508 528.763 10.6384 527.729 9.98118C527.143 9.60959 526.582 9.4272 525.92 9.30153C525.833 9.2904 525.643 9.28265 525.667 9.45331ZM526.246 9.70157L526.249 9.70286C526.247 9.70249 526.246 9.70157 526.246 9.70157Z" fill="#F2DFB5"/>
<path fill-rule="evenodd" clip-rule="evenodd" d="M534.92 37.993C509 40.244 501.279 23.5682 499.104 15.8121C497.557 24.2384 505.466 37.2042 518.563 39.9244C524.288 41.1139 530.066 40.1506 534.92 37.993Z" fill="#D68019"/>
</g>
<defs>
<clipPath id="clip0_6_2">
<rect width="1408" height="276" fill="white"/>
</clipPath>
</defs>
</svg>
